<svg width="60" height="60" viewBox="0 0 60 60" fill="none" xmlns="http://www.w3.org/2000/svg">
<circle cx="30" cy="30" r="30" fill="url(#paint0_linear_42_236)"/>
<path d="M30.385 18C25.7493 18 22 21.8121 22 26.5255C22 32.9196 30.385 42.3585 30.385 42.3585C30.385 42.3585 38.77 32.9196 38.77 26.5255C38.77 21.8121 35.0207 18 30.385 18ZM30.385 29.5703C29.5908 29.5703 28.8291 29.2495 28.2675 28.6785C27.7059 28.1075 27.3904 27.333 27.3904 26.5255C27.3904 25.7179 27.7059 24.9435 28.2675 24.3725C28.8291 23.8015 29.5908 23.4807 30.385 23.4807C31.1792 23.4807 31.9409 23.8015 32.5025 24.3725C33.0641 24.9435 33.3796 25.7179 33.3796 26.5255C33.3796 27.333 33.0641 28.1075 32.5025 28.6785C31.9409 29.2495 31.1792 29.5703 30.385 29.5703Z" fill="white"/>
<defs>
<linearGradient id="paint0_linear_42_236" x1="30" y1="-2.00151e-06" x2="63.1566" y2="41.9476" gradientUnits="userSpaceOnUse">
<stop stop-color="#FF6F91"/>
<stop offset="1" stop-color="#8B4CFC"/>
</linearGradient>
</defs>
</svg>
