<svg width="42" height="40" viewBox="0 0 42 40" fill="none" xmlns="http://www.w3.org/2000/svg">
<path fill-rule="evenodd" clip-rule="evenodd" d="M41.3893 19.7439C41.3893 8.92673 32.1495 0.157715 20.7516 0.157715C9.35377 0.157715 0.113983 8.92673 0.113983 19.7439C0.113983 30.561 9.35377 39.33 20.7516 39.33C23.2393 39.33 26.6567 38.4687 31.0038 36.7462L38.0333 39.3486L38.2418 39.4129C39.1504 39.6389 40.1134 39.1875 40.463 38.3368C40.6029 37.9966 40.6291 37.6239 40.5382 37.269L38.5781 29.6188L38.8991 28.89C40.5592 25.0522 41.3893 22.0035 41.3893 19.7439ZM36.269 27.9352L35.6221 29.389L37.3772 36.2392L30.9671 33.8661L29.2165 34.5552C25.5246 35.969 22.6729 36.6592 20.7507 36.6592C10.9071 36.6592 2.92728 29.086 2.92728 19.7439C2.92728 10.4019 10.9071 2.82861 20.7507 2.82861C30.5943 2.82861 38.5741 10.4019 38.5741 19.7439C38.5741 21.6055 37.818 24.3649 36.269 27.9352Z" fill="#262626"/>
</svg>
