<svg width="35" height="35" viewBox="0 0 35 35" fill="none" xmlns="http://www.w3.org/2000/svg">
<rect x="0.297302" y="0.745972" width="33.7297" height="33.7297" rx="16.8649" fill="#F5F5F5"/>
<path d="M21.6336 22.0828C21.908 21.8084 21.908 21.3635 21.6336 21.089L18.1559 17.6113L21.6345 14.1326C21.909 13.8582 21.909 13.4133 21.6345 13.1389C21.3601 12.8644 20.9152 12.8644 20.6408 13.1389L17.1621 16.6175L13.6834 13.1389C13.409 12.8644 12.9641 12.8644 12.6896 13.1389C12.4152 13.4133 12.4152 13.8582 12.6896 14.1326L16.1683 17.6113L12.6906 21.089C12.4162 21.3635 12.4162 21.8084 12.6906 22.0828C12.965 22.3572 13.4099 22.3572 13.6844 22.0828L17.1621 18.6051L20.6398 22.0828C20.9142 22.3572 21.3592 22.3572 21.6336 22.0828Z" fill="#050623"/>
</svg>
