<svg width="24" height="24" viewBox="0 0 24 24" fill="none" xmlns="http://www.w3.org/2000/svg">
<path d="M18.7121 5.32071C18.6208 5.22227 18.5125 5.14417 18.3932 5.09089C18.2739 5.0376 18.146 5.01017 18.0169 5.01017C17.8878 5.01017 17.7599 5.0376 17.6406 5.09089C17.5213 5.14417 17.413 5.22227 17.3217 5.32071L12.5 10.5027L7.67826 5.31009C7.58697 5.21178 7.4786 5.1338 7.35932 5.08059C7.24004 5.02738 7.11221 5 6.9831 5C6.854 5 6.72616 5.02738 6.60689 5.08059C6.48761 5.1338 6.37923 5.21178 6.28794 5.31009C6.19665 5.40841 6.12424 5.52512 6.07483 5.65357C6.02543 5.78202 6 5.91969 6 6.05873C6 6.19776 6.02543 6.33543 6.07483 6.46388C6.12424 6.59233 6.19665 6.70905 6.28794 6.80736L11.1097 12L6.28794 17.1926C6.19665 17.291 6.12424 17.4077 6.07483 17.5361C6.02543 17.6646 6 17.8022 6 17.9413C6 18.0803 6.02543 18.218 6.07483 18.3464C6.12424 18.4749 6.19665 18.5916 6.28794 18.6899C6.37923 18.7882 6.48761 18.8662 6.60689 18.9194C6.72616 18.9726 6.854 19 6.9831 19C7.11221 19 7.24004 18.9726 7.35932 18.9194C7.4786 18.8662 7.58697 18.7882 7.67826 18.6899L12.5 13.4973L17.3217 18.6899C17.413 18.7882 17.5214 18.8662 17.6407 18.9194C17.76 18.9726 17.8878 19 18.0169 19C18.146 19 18.2738 18.9726 18.3931 18.9194C18.5124 18.8662 18.6208 18.7882 18.7121 18.6899C18.8033 18.5916 18.8758 18.4749 18.9252 18.3464C18.9746 18.218 19 18.0803 19 17.9413C19 17.8022 18.9746 17.6646 18.9252 17.5361C18.8758 17.4077 18.8033 17.291 18.7121 17.1926L13.8903 12L18.7121 6.80736C19.0868 6.40384 19.0868 5.72423 18.7121 5.32071Z" fill="#111111"/>
</svg>
