<svg width="70" height="70" viewBox="0 0 70 70" fill="none" xmlns="http://www.w3.org/2000/svg">
<rect opacity="0.1" x="0.376709" y="0.295349" width="68.8508" height="68.8508" rx="13.4343" fill="url(#paint0_linear_0_1)"/>
<path d="M32.7471 20.4216C30.8906 20.4216 29.1101 21.1591 27.7973 22.4719C26.4846 23.7846 25.7471 25.5651 25.7471 27.4216C25.7471 29.2781 26.4846 31.0586 27.7973 32.3713C29.1101 33.6841 30.8906 34.4216 32.7471 34.4216C34.6036 34.4216 36.3841 33.6841 37.6968 32.3713C39.0096 31.0586 39.7471 29.2781 39.7471 27.4216C39.7471 25.5651 39.0096 23.7846 37.6968 22.4719C36.3841 21.1591 34.6036 20.4216 32.7471 20.4216ZM24.0128 36.1716C23.5519 36.1695 23.0951 36.2585 22.6686 36.4335C22.2421 36.6084 21.8544 36.8659 21.5278 37.1911C21.2011 37.5164 20.9419 37.9029 20.765 38.3286C20.5881 38.7542 20.4971 39.2106 20.4971 39.6716C20.4971 42.6308 21.9548 44.8621 24.2333 46.3164C26.4768 47.7461 29.5008 48.4216 32.7471 48.4216C33.4669 48.4216 34.1727 48.3884 34.8646 48.3219C33.4911 46.6144 32.7438 44.488 32.7471 42.2966C32.7471 39.9691 33.5731 37.8341 34.9468 36.1716H24.0128Z" fill="url(#paint1_linear_0_1)"/>
<path d="M42.261 49.0788C44.0885 49.0788 45.8412 48.3528 47.1334 47.0605C48.4256 45.7683 49.1516 44.0156 49.1516 42.1881C49.1516 40.3606 48.4256 38.608 47.1334 37.3157C45.8412 36.0235 44.0885 35.2975 42.261 35.2975C40.4335 35.2975 38.6808 36.0235 37.3886 37.3157C36.0963 38.608 35.3704 40.3606 35.3704 42.1881C35.3704 44.0156 36.0963 45.7683 37.3886 47.0605C38.6808 48.3528 40.4335 49.0788 42.261 49.0788ZM45.5665 40.2332L42.9382 44.6156C42.8227 44.8081 42.6649 44.9718 42.4766 45.0941C42.2883 45.2165 42.0746 45.2943 41.8518 45.3216C41.6289 45.349 41.4028 45.3251 41.1905 45.2519C40.9783 45.1787 40.7855 45.058 40.6269 44.8991L39.1031 43.3773C38.9183 43.1924 38.8144 42.9417 38.8144 42.6803C38.8144 42.4189 38.9183 42.1682 39.1031 41.9834C39.288 41.7986 39.5386 41.6947 39.8 41.6947C40.0615 41.6947 40.3121 41.7986 40.497 41.9834L41.5739 43.0623L43.8773 39.2212C43.9438 39.1103 44.0314 39.0136 44.1352 38.9365C44.2391 38.8595 44.3571 38.8037 44.4825 38.7722C44.6079 38.7408 44.7383 38.7343 44.8662 38.7533C44.9941 38.7722 45.117 38.8162 45.2279 38.8826C45.3388 38.9491 45.4355 39.0367 45.5126 39.1405C45.5896 39.2444 45.6455 39.3623 45.6769 39.4878C45.7084 39.6132 45.7148 39.7435 45.6959 39.8714C45.6769 39.9993 45.633 40.1223 45.5665 40.2332Z" fill="url(#paint2_linear_0_1)"/>
<defs>
<linearGradient id="paint0_linear_0_1" x1="34.8021" y1="0.295349" x2="34.8021" y2="69.1461" gradientUnits="userSpaceOnUse">
<stop stop-color="#FF6F91"/>
<stop offset="1" stop-color="#8B4CFC"/>
</linearGradient>
<linearGradient id="paint1_linear_0_1" x1="20.4971" y1="34.9431" x2="39.8678" y2="34.9431" gradientUnits="userSpaceOnUse">
<stop stop-color="#8A00FF"/>
<stop offset="1" stop-color="#FF007A"/>
</linearGradient>
<linearGradient id="paint2_linear_0_1" x1="35.3704" y1="42.1881" x2="49.1516" y2="42.1881" gradientUnits="userSpaceOnUse">
<stop stop-color="#8A00FF"/>
<stop offset="1" stop-color="#FF007A"/>
</linearGradient>
</defs>
</svg>
