<svg width="33" height="34" viewBox="0 0 33 34" fill="none" xmlns="http://www.w3.org/2000/svg">
<g clip-path="url(#clip0_1_961)">
<path d="M32.1818 17.0001C32.1818 8.1134 24.9776 0.90918 16.0909 0.90918C7.20422 0.90918 0 8.1134 0 17.0001C0 24.5461 5.19543 30.8782 12.204 32.6173V21.9175H8.88604V17.0001H12.204V14.8812C12.204 9.40454 14.6826 6.86603 20.0596 6.86603C21.0791 6.86603 22.8382 7.06621 23.5577 7.26573V11.7229C23.178 11.683 22.5183 11.6631 21.6989 11.6631C19.0606 11.6631 18.0411 12.6626 18.0411 15.261V17.0001H23.2971L22.394 21.9175H18.0411V32.9732C26.0087 32.011 32.1825 25.227 32.1825 17.0001H32.1818Z" fill="#0866FF"/>
<path d="M22.3934 21.9174L23.2964 17H18.0405V15.2609C18.0405 12.6626 19.06 11.663 21.6983 11.663C22.5176 11.663 23.1774 11.6829 23.5571 11.7228V7.26566C22.8375 7.06549 21.0785 6.86597 20.0589 6.86597C14.682 6.86597 12.2034 9.40447 12.2034 14.8812V17H8.88541V21.9174H12.2034V32.6172C13.4481 32.9262 14.7502 33.0909 16.0903 33.0909C16.75 33.0909 17.4007 33.0504 18.0398 32.9731V21.9174H22.3928H22.3934Z" fill="white"/>
</g>
<defs>
<clipPath id="clip0_1_961">
<rect width="32.1818" height="32.1818" fill="white" transform="translate(0 0.90918)"/>
</clipPath>
</defs>
</svg>
