<svg width="238" height="60" viewBox="0 0 238 60" fill="none" xmlns="http://www.w3.org/2000/svg">
<rect width="237.92" height="60.0063" rx="30.0032" fill="url(#paint0_linear_1_842)"/>
<path d="M33.5377 27.423C33.398 26.9704 33.2052 26.5653 32.9593 26.2076C32.7191 25.8444 32.4285 25.5343 32.0876 25.2772C31.7523 25.0202 31.3668 24.8274 30.9309 24.6989C30.495 24.5648 30.02 24.4977 29.5059 24.4977C28.5839 24.4977 27.7625 24.7296 27.0416 25.1934C26.3207 25.6572 25.7536 26.339 25.34 27.2386C24.9321 28.1327 24.7281 29.2224 24.7281 30.5077C24.7281 31.8041 24.9321 32.9021 25.34 33.8018C25.748 34.7015 26.3152 35.386 27.0416 35.8554C27.768 36.3192 28.6118 36.5511 29.573 36.5511C30.4447 36.5511 31.1991 36.3835 31.8361 36.0482C32.4788 35.7129 32.9733 35.2379 33.3198 34.6233C33.6662 34.003 33.8395 33.2765 33.8395 32.4439L34.5436 32.5529H29.8831V30.1221H36.8486V32.1841C36.8486 33.6537 36.5357 34.925 35.9098 35.9979C35.284 37.0708 34.4234 37.8979 33.3282 38.479C32.2329 39.0546 30.9756 39.3424 29.5562 39.3424C27.9748 39.3424 26.5862 38.9875 25.3903 38.2778C24.2001 37.5626 23.2697 36.5483 22.5991 35.2351C21.9341 33.9164 21.6016 32.3517 21.6016 30.5412C21.6016 29.1553 21.7972 27.9176 22.1884 26.8279C22.5851 25.7382 23.1383 24.8134 23.848 24.0534C24.5577 23.2879 25.3903 22.7067 26.3459 22.31C27.3014 21.9076 28.3408 21.7065 29.464 21.7065C30.414 21.7065 31.2997 21.8462 32.1211 22.1256C32.9426 22.3994 33.6718 22.7905 34.3089 23.2991C34.9515 23.8076 35.4796 24.4111 35.8931 25.1096C36.3066 25.8081 36.5776 26.5792 36.7061 27.423H33.5377ZM45.4214 39.3591C44.1306 39.3591 43.0157 39.0909 42.077 38.5544C41.1438 38.0124 40.4257 37.2468 39.9228 36.2578C39.4198 35.2631 39.1684 34.0924 39.1684 32.7457C39.1684 31.4213 39.4198 30.259 39.9228 29.2587C40.4313 28.2529 41.141 27.4705 42.0518 26.9117C42.9627 26.3473 44.0328 26.0651 45.2621 26.0651C46.0556 26.0651 46.8044 26.1937 47.5085 26.4507C48.2182 26.7022 48.8441 27.0934 49.3861 27.6242C49.9338 28.1551 50.364 28.8312 50.677 29.6527C50.9899 30.4685 51.1464 31.4409 51.1464 32.5696V33.5001H40.5933V31.4548H48.2378C48.2322 30.8737 48.1065 30.3568 47.8606 29.9041C47.6147 29.4459 47.2711 29.0855 46.8296 28.8229C46.3937 28.5602 45.8852 28.4289 45.3041 28.4289C44.6838 28.4289 44.1389 28.5798 43.6696 28.8815C43.2002 29.1777 42.8341 29.5689 42.5715 30.055C42.3144 30.5356 42.1831 31.0637 42.1775 31.6392V33.4246C42.1775 34.1734 42.3144 34.816 42.5883 35.3525C42.8621 35.8834 43.2449 36.2913 43.7366 36.5763C44.2284 36.8557 44.8039 36.9954 45.4633 36.9954C45.9048 36.9954 46.3043 36.9339 46.662 36.811C47.0196 36.6825 47.3297 36.4953 47.5924 36.2494C47.855 36.0035 48.0534 35.699 48.1875 35.3357L51.0206 35.6542C50.8418 36.403 50.5009 37.0569 49.998 37.6157C49.5007 38.1689 48.8636 38.5992 48.0869 38.9065C47.3102 39.2083 46.4217 39.3591 45.4214 39.3591ZM60.1424 26.2328V28.5798H52.7411V26.2328H60.1424ZM54.5684 23.1482H57.6027V35.2351C57.6027 35.6431 57.6641 35.956 57.7871 36.1739C57.9156 36.3863 58.0832 36.5316 58.29 36.6098C58.4968 36.688 58.7259 36.7272 58.9773 36.7272C59.1673 36.7272 59.3405 36.7132 59.497 36.6852C59.6591 36.6573 59.782 36.6322 59.8658 36.6098L60.3771 38.9819C60.2151 39.0378 59.9832 39.0993 59.6814 39.1663C59.3853 39.2334 59.022 39.2725 58.5918 39.2837C57.8318 39.306 57.1472 39.1915 56.5381 38.94C55.929 38.683 55.4457 38.2862 55.088 37.7498C54.736 37.2133 54.5628 36.5427 54.5684 35.7381V23.1482ZM77.9984 26.6603C77.9201 25.9282 77.5904 25.3583 77.0093 24.9503C76.4337 24.5424 75.6849 24.3384 74.7629 24.3384C74.1147 24.3384 73.5587 24.4362 73.0948 24.6318C72.631 24.8274 72.2762 25.0928 72.0303 25.4281C71.7844 25.7634 71.6587 26.1462 71.6531 26.5765C71.6531 26.9341 71.7342 27.2442 71.8962 27.5069C72.0638 27.7695 72.2902 27.993 72.5752 28.1774C72.8601 28.3563 73.1759 28.5071 73.5223 28.6301C73.8688 28.753 74.218 28.8564 74.5701 28.9402L76.1795 29.3425C76.8277 29.4934 77.4507 29.6974 78.0487 29.9544C78.6522 30.2115 79.1914 30.5356 79.6664 30.9268C80.147 31.3179 80.527 31.7901 80.8064 32.3433C81.0858 32.8965 81.2255 33.5448 81.2255 34.288C81.2255 35.2938 80.9684 36.1795 80.4543 36.9451C79.9402 37.7051 79.197 38.3002 78.2247 38.7305C77.2579 39.1552 76.0872 39.3675 74.7126 39.3675C73.377 39.3675 72.2175 39.1608 71.234 38.7472C70.2561 38.3337 69.4905 37.7302 68.9373 36.9367C68.3897 36.1432 68.0935 35.1765 68.0488 34.0365H71.1083C71.153 34.6344 71.3374 35.1318 71.6615 35.5285C71.9856 35.9253 72.4075 36.2214 72.9272 36.417C73.4525 36.6126 74.0392 36.7104 74.6874 36.7104C75.3636 36.7104 75.9559 36.6098 76.4644 36.4086C76.9785 36.2019 77.3809 35.9169 77.6715 35.5537C77.962 35.1849 78.1101 34.7546 78.1157 34.2628C78.1101 33.8158 77.9788 33.447 77.7218 33.1564C77.4647 32.8602 77.1043 32.6143 76.6405 32.4188C76.1822 32.2176 75.6458 32.0388 75.0311 31.8823L73.0781 31.3794C71.6643 31.0162 70.5467 30.4657 69.7252 29.7281C68.9094 28.9849 68.5015 27.9986 68.5015 26.7692C68.5015 25.7578 68.7753 24.8721 69.3229 24.1121C69.8761 23.3521 70.6277 22.7626 71.5777 22.3435C72.5277 21.9188 73.6034 21.7065 74.8048 21.7065C76.023 21.7065 77.0903 21.9188 78.0067 22.3435C78.9288 22.7626 79.6524 23.3466 80.1777 24.0954C80.703 24.8386 80.974 25.6935 80.9908 26.6603H77.9984ZM90.2928 26.2328V28.5798H82.8914V26.2328H90.2928ZM84.7187 23.1482H87.753V35.2351C87.753 35.6431 87.8145 35.956 87.9374 36.1739C88.0659 36.3863 88.2336 36.5316 88.4403 36.6098C88.6471 36.688 88.8762 36.7272 89.1277 36.7272C89.3177 36.7272 89.4909 36.7132 89.6474 36.6852C89.8094 36.6573 89.9324 36.6322 90.0162 36.6098L90.5275 38.9819C90.3654 39.0378 90.1335 39.0993 89.8318 39.1663C89.5356 39.2334 89.1724 39.2725 88.7421 39.2837C87.9821 39.306 87.2976 39.1915 86.6885 38.94C86.0794 38.683 85.596 38.2862 85.2384 37.7498C84.8863 37.2133 84.7131 36.5427 84.7187 35.7381V23.1482ZM96.5353 39.3675C95.7195 39.3675 94.9846 39.2222 94.3308 38.9316C93.6826 38.6355 93.1685 38.1996 92.7885 37.624C92.4141 37.0485 92.2269 36.3388 92.2269 35.495C92.2269 34.7685 92.3611 34.1678 92.6293 33.6928C92.8975 33.2179 93.2635 32.8379 93.7273 32.5529C94.1911 32.2679 94.7136 32.0527 95.2948 31.9075C95.8815 31.7566 96.4878 31.6476 97.1137 31.5806C97.8681 31.5023 98.48 31.4325 98.9494 31.371C99.4188 31.3039 99.7596 31.2034 99.972 31.0693C100.19 30.9295 100.299 30.7144 100.299 30.4238V30.3735C100.299 29.7421 100.112 29.2531 99.7373 28.9067C99.3629 28.5602 98.8236 28.387 98.1195 28.387C97.3763 28.387 96.7868 28.549 96.3509 28.8731C95.9206 29.1973 95.6301 29.58 95.4792 30.0215L92.646 29.6192C92.8696 28.8368 93.2384 28.183 93.7525 27.6577C94.2666 27.1269 94.8952 26.7301 95.6384 26.4675C96.3817 26.1993 97.2031 26.0651 98.1028 26.0651C98.7231 26.0651 99.3405 26.1378 99.9552 26.2831C100.57 26.4284 101.132 26.6687 101.64 27.0039C102.149 27.3336 102.556 27.7835 102.864 28.3535C103.177 28.9234 103.333 29.6359 103.333 30.4909V39.1077H100.416V37.339H100.316C100.131 37.6967 99.8714 38.032 99.5361 38.3449C99.2064 38.6522 98.7901 38.9009 98.2872 39.0909C97.7898 39.2753 97.2059 39.3675 96.5353 39.3675ZM97.3232 37.1379C97.9323 37.1379 98.4604 37.0177 98.9075 36.7774C99.3545 36.5316 99.6982 36.2075 99.9385 35.8051C100.184 35.4028 100.307 34.9641 100.307 34.4891V32.972C100.212 33.0502 100.05 33.1229 99.8211 33.1899C99.5976 33.257 99.3461 33.3156 99.0667 33.3659C98.7873 33.4162 98.5107 33.4609 98.2369 33.5001C97.9631 33.5392 97.7256 33.5727 97.5244 33.6006C97.0718 33.6621 96.6667 33.7627 96.309 33.9024C95.9514 34.0421 95.6692 34.2377 95.4624 34.4891C95.2557 34.735 95.1523 35.0535 95.1523 35.4447C95.1523 36.0035 95.3563 36.4254 95.7642 36.7104C96.1721 36.9954 96.6918 37.1379 97.3232 37.1379ZM106.384 39.1077V26.2328H109.326V28.3786H109.461C109.695 27.6354 110.098 27.0626 110.668 26.6603C111.243 26.2523 111.9 26.0484 112.637 26.0484C112.805 26.0484 112.992 26.0568 113.199 26.0735C113.411 26.0847 113.587 26.1043 113.727 26.1322V28.9234C113.598 28.8787 113.394 28.8396 113.115 28.8061C112.841 28.767 112.576 28.7474 112.319 28.7474C111.766 28.7474 111.268 28.8676 110.827 29.1078C110.391 29.3425 110.047 29.6694 109.796 30.0885C109.544 30.5077 109.419 30.991 109.419 31.5386V39.1077H106.384ZM122.863 26.2328V28.5798H115.462V26.2328H122.863ZM117.289 23.1482H120.324V35.2351C120.324 35.6431 120.385 35.956 120.508 36.1739C120.637 36.3863 120.804 36.5316 121.011 36.6098C121.218 36.688 121.447 36.7272 121.698 36.7272C121.888 36.7272 122.062 36.7132 122.218 36.6852C122.38 36.6573 122.503 36.6322 122.587 36.6098L123.098 38.9819C122.936 39.0378 122.704 39.0993 122.402 39.1663C122.106 39.2334 121.743 39.2725 121.313 39.2837C120.553 39.306 119.868 39.1915 119.259 38.94C118.65 38.683 118.167 38.2862 117.809 37.7498C117.457 37.2133 117.284 36.5427 117.289 35.7381V23.1482ZM130.963 39.3591C129.672 39.3591 128.557 39.0909 127.618 38.5544C126.685 38.0124 125.967 37.2468 125.464 36.2578C124.961 35.2631 124.71 34.0924 124.71 32.7457C124.71 31.4213 124.961 30.259 125.464 29.2587C125.973 28.2529 126.682 27.4705 127.593 26.9117C128.504 26.3473 129.574 26.0651 130.803 26.0651C131.597 26.0651 132.346 26.1937 133.05 26.4507C133.759 26.7022 134.385 27.0934 134.927 27.6242C135.475 28.1551 135.905 28.8312 136.218 29.6527C136.531 30.4685 136.688 31.4409 136.688 32.5696V33.5001H126.135V31.4548H133.779C133.773 30.8737 133.648 30.3568 133.402 29.9041C133.156 29.4459 132.812 29.0855 132.371 28.8229C131.935 28.5602 131.426 28.4289 130.845 28.4289C130.225 28.4289 129.68 28.5798 129.211 28.8815C128.741 29.1777 128.375 29.5689 128.113 30.055C127.856 30.5356 127.724 31.0637 127.719 31.6392V33.4246C127.719 34.1734 127.856 34.816 128.129 35.3525C128.403 35.8834 128.786 36.2913 129.278 36.5763C129.77 36.8557 130.345 36.9954 131.005 36.9954C131.446 36.9954 131.846 36.9339 132.203 36.811C132.561 36.6825 132.871 36.4953 133.134 36.2494C133.396 36.0035 133.595 35.699 133.729 35.3357L136.562 35.6542C136.383 36.403 136.042 37.0569 135.539 37.6157C135.042 38.1689 134.405 38.5992 133.628 38.9065C132.851 39.2083 131.963 39.3591 130.963 39.3591ZM144.032 39.334C143.021 39.334 142.116 39.0741 141.317 38.5544C140.518 38.0348 139.886 37.2804 139.422 36.2913C138.958 35.3022 138.727 34.1008 138.727 32.687C138.727 31.2565 138.961 30.0494 139.431 29.0659C139.906 28.0768 140.545 27.3308 141.35 26.8279C142.155 26.3194 143.052 26.0651 144.041 26.0651C144.795 26.0651 145.415 26.1937 145.902 26.4507C146.388 26.7022 146.773 27.0067 147.058 27.3644C147.343 27.7164 147.564 28.0489 147.721 28.3618H147.846V21.9412H150.889V39.1077H147.905V37.0792H147.721C147.564 37.3921 147.338 37.7246 147.042 38.0767C146.745 38.4231 146.354 38.7193 145.868 38.9652C145.382 39.211 144.77 39.334 144.032 39.334ZM144.879 36.8445C145.522 36.8445 146.069 36.6713 146.522 36.3248C146.975 35.9728 147.318 35.4838 147.553 34.858C147.788 34.2321 147.905 33.5028 147.905 32.6702C147.905 31.8376 147.788 31.114 147.553 30.4993C147.324 29.8846 146.983 29.4068 146.53 29.0659C146.083 28.7251 145.533 28.5546 144.879 28.5546C144.203 28.5546 143.638 28.7306 143.186 29.0827C142.733 29.4347 142.392 29.9209 142.163 30.5412C141.934 31.1615 141.82 31.8711 141.82 32.6702C141.82 33.4749 141.934 34.193 142.163 34.8244C142.398 35.4503 142.742 35.9448 143.194 36.3081C143.652 36.6657 144.214 36.8445 144.879 36.8445ZM174.218 21.9412V39.1077H171.452L163.364 27.4147H163.221V39.1077H160.111V21.9412H162.894L170.974 33.6425H171.125V21.9412H174.218ZM183.089 39.3591C181.831 39.3591 180.742 39.0825 179.82 38.5293C178.898 37.9761 178.182 37.2021 177.674 36.2075C177.171 35.2128 176.919 34.0505 176.919 32.7205C176.919 31.3906 177.171 30.2255 177.674 29.2252C178.182 28.2249 178.898 27.4482 179.82 26.895C180.742 26.3418 181.831 26.0651 183.089 26.0651C184.346 26.0651 185.436 26.3418 186.358 26.895C187.28 27.4482 187.992 28.2249 188.495 29.2252C189.004 30.2255 189.258 31.3906 189.258 32.7205C189.258 34.0505 189.004 35.2128 188.495 36.2075C187.992 37.2021 187.28 37.9761 186.358 38.5293C185.436 39.0825 184.346 39.3591 183.089 39.3591ZM183.105 36.9283C183.787 36.9283 184.357 36.7411 184.815 36.3667C185.274 35.9867 185.614 35.4782 185.838 34.8412C186.067 34.2041 186.182 33.4945 186.182 32.7121C186.182 31.9242 186.067 31.2117 185.838 30.5747C185.614 29.9321 185.274 29.4208 184.815 29.0408C184.357 28.6608 183.787 28.4708 183.105 28.4708C182.407 28.4708 181.826 28.6608 181.362 29.0408C180.904 29.4208 180.56 29.9321 180.331 30.5747C180.107 31.2117 179.996 31.9242 179.996 32.7121C179.996 33.4945 180.107 34.2041 180.331 34.8412C180.56 35.4782 180.904 35.9867 181.362 36.3667C181.826 36.7411 182.407 36.9283 183.105 36.9283ZM194.122 39.1077L190.484 26.2328H193.577L195.84 35.2854H195.957L198.271 26.2328H201.33L203.644 35.2351H203.769L205.999 26.2328H209.1L205.454 39.1077H202.294L199.88 30.4071H199.704L197.29 39.1077H194.122Z" fill="white"/>
<defs>
<linearGradient id="paint0_linear_1_842" x1="9.49871" y1="-8.24113e-06" x2="172.285" y2="137.635" gradientUnits="userSpaceOnUse">
<stop stop-color="#FF6F91"/>
<stop offset="1" stop-color="#8B4CFC"/>
</linearGradient>
</defs>
</svg>
