<svg width="246" height="60" viewBox="0 0 246 60" fill="none" xmlns="http://www.w3.org/2000/svg">
<rect x="1.69447" y="0.983498" width="243.322" height="58.0393" rx="29.0197" fill="white" stroke="url(#paint0_linear_1_848)" stroke-width="1.967"/>
<path d="M78.4481 26.2174C78.3783 25.5644 78.0842 25.056 77.5658 24.6921C77.0524 24.3283 76.3844 24.1463 75.562 24.1463C74.9838 24.1463 74.4878 24.2336 74.0741 24.408C73.6604 24.5825 73.3439 24.8192 73.1245 25.1183C72.9052 25.4174 72.7931 25.7588 72.7881 26.1426C72.7881 26.4617 72.8603 26.7383 73.0049 26.9726C73.1544 27.2069 73.3563 27.4062 73.6105 27.5707C73.8647 27.7302 74.1464 27.8648 74.4554 27.9745C74.7645 28.0841 75.076 28.1764 75.39 28.2511L76.8256 28.61C77.4038 28.7446 77.9596 28.9265 78.4929 29.1558C79.0313 29.3851 79.5123 29.6742 79.936 30.0231C80.3646 30.3721 80.7036 30.7933 80.9528 31.2867C81.202 31.7802 81.3267 32.3584 81.3267 33.0214C81.3267 33.9186 81.0974 34.7086 80.6388 35.3915C80.1802 36.0694 79.5173 36.6003 78.6499 36.9841C77.7876 37.3629 76.7433 37.5523 75.5171 37.5523C74.3258 37.5523 73.2915 37.3679 72.4142 36.9991C71.5419 36.6302 70.859 36.0919 70.3656 35.384C69.8771 34.6762 69.6129 33.8139 69.573 32.7971H72.3021C72.342 33.3304 72.5064 33.774 72.7955 34.1279C73.0847 34.4818 73.461 34.746 73.9246 34.9205C74.3931 35.0949 74.9165 35.1822 75.4947 35.1822C76.0978 35.1822 76.6262 35.0925 77.0798 34.913C77.5384 34.7286 77.8973 34.4744 78.1565 34.1504C78.4157 33.8214 78.5478 33.4376 78.5527 32.9989C78.5478 32.6002 78.4306 32.2712 78.2013 32.012C77.972 31.7478 77.6505 31.5285 77.2368 31.354C76.8281 31.1746 76.3496 31.0151 75.8012 30.8755L74.0591 30.4269C72.798 30.1029 71.8011 29.6119 71.0684 28.9539C70.3406 28.291 69.9768 27.4112 69.9768 26.3146C69.9768 25.4124 70.221 24.6223 70.7095 23.9444C71.203 23.2665 71.8734 22.7407 72.7208 22.3668C73.5682 21.988 74.5277 21.7986 75.5994 21.7986C76.686 21.7986 77.6381 21.988 78.4555 22.3668C79.278 22.7407 79.9235 23.2616 80.392 23.9295C80.8606 24.5924 81.1023 25.3551 81.1173 26.2174H78.4481ZM88.9748 37.5449C87.8234 37.5449 86.829 37.3056 85.9915 36.8271C85.1591 36.3436 84.5186 35.6607 84.07 34.7784C83.6214 33.8912 83.3971 32.8469 83.3971 31.6456C83.3971 30.4643 83.6214 29.4275 84.07 28.5352C84.5236 27.638 85.1566 26.9402 85.9691 26.4417C86.7816 25.9383 87.7361 25.6866 88.8328 25.6866C89.5406 25.6866 90.2085 25.8012 90.8366 26.0305C91.4696 26.2548 92.0279 26.6037 92.5114 27.0773C92.9999 27.5508 93.3837 28.1539 93.6628 28.8867C93.9419 29.6144 94.0815 30.4817 94.0815 31.4886V32.3185H84.6681V30.4942H91.487C91.4821 29.9758 91.3699 29.5147 91.1506 29.111C90.9313 28.7022 90.6247 28.3807 90.2309 28.1464C89.8421 27.9122 89.3885 27.795 88.8701 27.795C88.3168 27.795 87.8309 27.9296 87.4121 28.1988C86.9934 28.463 86.667 28.8119 86.4327 29.2455C86.2034 29.6742 86.0863 30.1453 86.0813 30.6587V32.2512C86.0813 32.9192 86.2034 33.4924 86.4476 33.9709C86.6919 34.4445 87.0333 34.8083 87.472 35.0625C87.9106 35.3118 88.424 35.4364 89.0122 35.4364C89.406 35.4364 89.7624 35.3816 90.0814 35.2719C90.4004 35.1573 90.677 34.9903 90.9113 34.7709C91.1456 34.5516 91.3225 34.28 91.4422 33.956L93.9694 34.2401C93.8099 34.908 93.5058 35.4912 93.0572 35.9897C92.6136 36.4831 92.0453 36.867 91.3525 37.1411C90.6596 37.4103 89.8671 37.5449 88.9748 37.5449ZM101.666 37.5449C100.515 37.5449 99.5203 37.3056 98.6828 36.8271C97.8504 36.3436 97.2099 35.6607 96.7613 34.7784C96.3127 33.8912 96.0884 32.8469 96.0884 31.6456C96.0884 30.4643 96.3127 29.4275 96.7613 28.5352C97.2149 27.638 97.8479 26.9402 98.6604 26.4417C99.4729 25.9383 100.427 25.6866 101.524 25.6866C102.232 25.6866 102.9 25.8012 103.528 26.0305C104.161 26.2548 104.719 26.6037 105.203 27.0773C105.691 27.5508 106.075 28.1539 106.354 28.8867C106.633 29.6144 106.773 30.4817 106.773 31.4886V32.3185H97.3594V30.4942H104.178C104.173 29.9758 104.061 29.5147 103.842 29.111C103.623 28.7022 103.316 28.3807 102.922 28.1464C102.533 27.9122 102.08 27.795 101.561 27.795C101.008 27.795 100.522 27.9296 100.103 28.1988C99.6847 28.463 99.3583 28.8119 99.124 29.2455C98.8947 29.6742 98.7776 30.1453 98.7726 30.6587V32.2512C98.7726 32.9192 98.8947 33.4924 99.1389 33.9709C99.3832 34.4445 99.7246 34.8083 100.163 35.0625C100.602 35.3118 101.115 35.4364 101.704 35.4364C102.097 35.4364 102.454 35.3816 102.773 35.2719C103.092 35.1573 103.368 34.9903 103.603 34.7709C103.837 34.5516 104.014 34.28 104.133 33.956L106.661 34.2401C106.501 34.908 106.197 35.4912 105.748 35.9897C105.305 36.4831 104.737 36.867 104.044 37.1411C103.351 37.4103 102.558 37.5449 101.666 37.5449ZM119.716 37.5449C118.594 37.5449 117.622 37.2981 116.8 36.8047C115.977 36.3112 115.339 35.6208 114.886 34.7336C114.437 33.8463 114.213 32.8095 114.213 31.6232C114.213 30.4369 114.437 29.3976 114.886 28.5053C115.339 27.6131 115.977 26.9202 116.8 26.4268C117.622 25.9333 118.594 25.6866 119.716 25.6866C120.837 25.6866 121.809 25.9333 122.632 26.4268C123.454 26.9202 124.09 27.6131 124.538 28.5053C124.992 29.3976 125.219 30.4369 125.219 31.6232C125.219 32.8095 124.992 33.8463 124.538 34.7336C124.09 35.6208 123.454 36.3112 122.632 36.8047C121.809 37.2981 120.837 37.5449 119.716 37.5449ZM119.731 35.3766C120.339 35.3766 120.847 35.2096 121.256 34.8756C121.665 34.5367 121.969 34.0831 122.168 33.5148C122.373 32.9466 122.475 32.3135 122.475 31.6157C122.475 30.9129 122.373 30.2773 122.168 29.7091C121.969 29.1359 121.665 28.6798 121.256 28.3408C120.847 28.0019 120.339 27.8324 119.731 27.8324C119.108 27.8324 118.589 28.0019 118.176 28.3408C117.767 28.6798 117.46 29.1359 117.256 29.7091C117.057 30.2773 116.957 30.9129 116.957 31.6157C116.957 32.3135 117.057 32.9466 117.256 33.5148C117.46 34.0831 117.767 34.5367 118.176 34.8756C118.589 35.2096 119.108 35.3766 119.731 35.3766ZM135.046 32.4905V25.8361H137.753V37.3206H135.129V35.2794H135.009C134.75 35.9224 134.324 36.4483 133.731 36.857C133.142 37.2657 132.417 37.4701 131.555 37.4701C130.802 37.4701 130.137 37.3031 129.558 36.9691C128.985 36.6302 128.537 36.1392 128.213 35.4962C127.889 34.8482 127.727 34.0656 127.727 33.1485V25.8361H130.433V32.7298C130.433 33.4575 130.633 34.0357 131.031 34.4644C131.43 34.8931 131.954 35.1074 132.601 35.1074C133 35.1074 133.387 35.0102 133.76 34.8158C134.134 34.6214 134.441 34.3323 134.68 33.9485C134.924 33.5597 135.046 33.0737 135.046 32.4905ZM140.747 37.3206V25.8361H143.371V27.7502H143.491C143.7 27.0872 144.059 26.5763 144.568 26.2174C145.081 25.8535 145.667 25.6716 146.325 25.6716C146.474 25.6716 146.641 25.6791 146.826 25.694C147.015 25.704 147.172 25.7214 147.297 25.7464V28.2362C147.182 28.1963 147 28.1614 146.751 28.1315C146.507 28.0966 146.27 28.0792 146.04 28.0792C145.547 28.0792 145.103 28.1863 144.71 28.4007C144.321 28.61 144.014 28.9016 143.79 29.2754C143.566 29.6493 143.453 30.0805 143.453 30.5689V37.3206H140.747ZM158.081 37.3206L153.759 22.0079H156.742L159.501 33.2606H159.643L162.589 22.0079H165.303L168.257 33.2681H168.391L171.15 22.0079H174.133L169.812 37.3206H167.075L164.01 26.5763H163.89L160.817 37.3206H158.081ZM179.985 37.5449C178.864 37.5449 177.892 37.2981 177.069 36.8047C176.247 36.3112 175.609 35.6208 175.155 34.7336C174.707 33.8463 174.482 32.8095 174.482 31.6232C174.482 30.4369 174.707 29.3976 175.155 28.5053C175.609 27.6131 176.247 26.9202 177.069 26.4268C177.892 25.9333 178.864 25.6866 179.985 25.6866C181.107 25.6866 182.079 25.9333 182.901 26.4268C183.724 26.9202 184.359 27.6131 184.808 28.5053C185.261 29.3976 185.488 30.4369 185.488 31.6232C185.488 32.8095 185.261 33.8463 184.808 34.7336C184.359 35.6208 183.724 36.3112 182.901 36.8047C182.079 37.2981 181.107 37.5449 179.985 37.5449ZM180 35.3766C180.608 35.3766 181.117 35.2096 181.526 34.8756C181.934 34.5367 182.238 34.0831 182.438 33.5148C182.642 32.9466 182.744 32.3135 182.744 31.6157C182.744 30.9129 182.642 30.2773 182.438 29.7091C182.238 29.1359 181.934 28.6798 181.526 28.3408C181.117 28.0019 180.608 27.8324 180 27.8324C179.377 27.8324 178.859 28.0019 178.445 28.3408C178.036 28.6798 177.73 29.1359 177.525 29.7091C177.326 30.2773 177.226 30.9129 177.226 31.6157C177.226 32.3135 177.326 32.9466 177.525 33.5148C177.73 34.0831 178.036 34.5367 178.445 34.8756C178.859 35.2096 179.377 35.3766 180 35.3766ZM187.996 37.3206V25.8361H190.62V27.7502H190.74C190.949 27.0872 191.308 26.5763 191.817 26.2174C192.33 25.8535 192.916 25.6716 193.574 25.6716C193.723 25.6716 193.89 25.6791 194.075 25.694C194.264 25.704 194.421 25.7214 194.546 25.7464V28.2362C194.431 28.1963 194.249 28.1614 194 28.1315C193.756 28.0966 193.519 28.0792 193.29 28.0792C192.796 28.0792 192.353 28.1863 191.959 28.4007C191.57 28.61 191.263 28.9016 191.039 29.2754C190.815 29.6493 190.703 30.0805 190.703 30.5689V37.3206H187.996ZM199.022 33.7167L199.014 30.4493H199.448L203.575 25.8361H206.738L201.661 31.4886H201.1L199.022 33.7167ZM196.555 37.3206V22.0079H199.261V37.3206H196.555ZM203.762 37.3206L200.024 32.0942L201.848 30.1876L207 37.3206H203.762ZM217.829 28.8717L215.362 29.1409C215.292 28.8916 215.17 28.6574 214.996 28.438C214.826 28.2187 214.597 28.0418 214.308 27.9072C214.019 27.7726 213.665 27.7053 213.246 27.7053C212.683 27.7053 212.209 27.8274 211.825 28.0717C211.447 28.3159 211.26 28.6324 211.265 29.0212C211.26 29.3552 211.382 29.6269 211.631 29.8362C211.885 30.0456 212.304 30.2175 212.887 30.3521L214.846 30.7708C215.933 31.0051 216.74 31.3764 217.269 31.8849C217.802 32.3933 218.071 33.0587 218.076 33.8812C218.071 34.604 217.859 35.242 217.441 35.7953C217.027 36.3436 216.451 36.7723 215.713 37.0813C214.976 37.3903 214.128 37.5449 213.171 37.5449C211.766 37.5449 210.634 37.2508 209.777 36.6626C208.919 36.0694 208.408 35.2445 208.244 34.1878L210.883 33.9335C211.003 34.4519 211.257 34.8432 211.646 35.1074C212.035 35.3716 212.541 35.5037 213.164 35.5037C213.807 35.5037 214.323 35.3716 214.711 35.1074C215.105 34.8432 215.302 34.5167 215.302 34.1279C215.302 33.799 215.175 33.5273 214.921 33.313C214.672 33.0986 214.283 32.9341 213.754 32.8195L211.795 32.4083C210.694 32.179 209.879 31.7927 209.351 31.2493C208.822 30.701 208.56 30.0082 208.565 29.1708C208.56 28.463 208.752 27.8499 209.141 27.3315C209.535 26.8081 210.081 26.4043 210.779 26.1202C211.481 25.8311 212.291 25.6866 213.209 25.6866C214.554 25.6866 215.614 25.9732 216.386 26.5464C217.164 27.1196 217.645 27.8947 217.829 28.8717Z" fill="url(#paint1_linear_1_848)"/>
<path d="M41.8484 15.7913L44.5935 26.8124L55.6146 29.5574L44.5935 32.3024L41.8484 43.3235L39.1034 32.3024L28.0823 29.5574L39.1034 26.8124L41.8484 15.7913Z" fill="url(#paint2_linear_1_848)"/>
<defs>
<linearGradient id="paint0_linear_1_848" x1="10.5039" y1="-8.24113e-06" x2="174.044" y2="142.555" gradientUnits="userSpaceOnUse">
<stop stop-color="#FF6F91"/>
<stop offset="1" stop-color="#8B4CFC"/>
</linearGradient>
<linearGradient id="paint1_linear_1_848" x1="68.616" y1="29.8206" x2="219.616" y2="29.8206" gradientUnits="userSpaceOnUse">
<stop stop-color="#8A00FF"/>
<stop offset="1" stop-color="#FF007A"/>
</linearGradient>
<linearGradient id="paint2_linear_1_848" x1="28.0823" y1="29.5574" x2="55.6146" y2="29.5574" gradientUnits="userSpaceOnUse">
<stop stop-color="#8A00FF"/>
<stop offset="1" stop-color="#FF007A"/>
</linearGradient>
</defs>
</svg>
