<svg width="349" height="58" viewBox="0 0 349 58" fill="none" xmlns="http://www.w3.org/2000/svg">
<rect x="1.2973" y="1.6825" width="346.541" height="54.4418" rx="27.2209" stroke="url(#paint0_linear_1_672)" stroke-width="2"/>
<path d="M120.278 21.2641V35.9034H117.183V21.2641H120.278ZM125.812 29.5559V35.9034H122.767V24.9239H125.669V26.861H125.798C126.041 26.2225 126.448 25.7173 127.02 25.3456C127.592 24.9692 128.285 24.7809 129.1 24.7809C129.863 24.7809 130.528 24.9477 131.095 25.2813C131.662 25.6149 132.103 26.0914 132.417 26.7109C132.732 27.3257 132.889 28.0595 132.889 28.9125V35.9034H129.844V29.4558C129.848 28.7839 129.677 28.2597 129.329 27.8832C128.981 27.502 128.502 27.3114 127.892 27.3114C127.482 27.3114 127.12 27.3995 126.806 27.5759C126.496 27.7522 126.253 28.0095 126.077 28.3478C125.905 28.6814 125.817 29.0841 125.812 29.5559ZM142.544 40.0207V34.145H142.451C142.308 34.4499 142.106 34.7525 141.844 35.0528C141.586 35.3482 141.25 35.5936 140.836 35.789C140.426 35.9844 139.926 36.0821 139.335 36.0821C138.501 36.0821 137.745 35.8676 137.069 35.4388C136.397 35.0051 135.863 34.3689 135.467 33.5302C135.077 32.6867 134.881 31.6526 134.881 30.4279C134.881 29.1699 135.084 28.1239 135.489 27.2899C135.894 26.4512 136.432 25.8246 137.104 25.41C137.781 24.9906 138.522 24.7809 139.327 24.7809C139.942 24.7809 140.454 24.8858 140.864 25.0955C141.279 25.3004 141.612 25.5577 141.865 25.8675C142.122 26.1724 142.318 26.4727 142.451 26.7681H142.58V24.9239H145.582V40.0207H142.544ZM140.3 33.6589C140.79 33.6589 141.205 33.5254 141.543 33.2586C141.886 32.987 142.149 32.6081 142.33 32.122C142.516 31.636 142.608 31.0665 142.608 30.4136C142.608 29.7608 142.518 29.1937 142.337 28.7124C142.156 28.2311 141.894 27.8594 141.551 27.5973C141.207 27.3352 140.79 27.2042 140.3 27.2042C139.799 27.2042 139.378 27.34 139.034 27.6116C138.691 27.8832 138.432 28.2597 138.255 28.741C138.079 29.2223 137.991 29.7798 137.991 30.4136C137.991 31.0522 138.079 31.6169 138.255 32.1077C138.436 32.5938 138.696 32.975 139.034 33.2514C139.378 33.5231 139.799 33.6589 140.3 33.6589ZM155.068 31.2285V24.9239H158.113V35.9034H155.189V33.9091H155.075C154.827 34.5524 154.415 35.0694 153.838 35.4602C153.266 35.851 152.568 36.0463 151.744 36.0463C151.01 36.0463 150.364 35.8796 149.807 35.546C149.249 35.2124 148.813 34.7382 148.498 34.1235C148.189 33.5088 148.031 32.7725 148.027 31.9147V24.9239H151.072V31.3715C151.077 32.0196 151.25 32.5319 151.594 32.9083C151.937 33.2848 152.397 33.473 152.973 33.473C153.34 33.473 153.683 33.3896 154.003 33.2228C154.322 33.0513 154.579 32.7987 154.774 32.4651C154.975 32.1316 155.072 31.7194 155.068 31.2285ZM160.548 35.9034V24.9239H163.593V35.9034H160.548ZM162.078 23.5086C161.625 23.5086 161.237 23.3585 160.913 23.0583C160.594 22.7533 160.434 22.3887 160.434 21.9646C160.434 21.5452 160.594 21.1855 160.913 20.8852C161.237 20.5803 161.625 20.4278 162.078 20.4278C162.531 20.4278 162.917 20.5803 163.236 20.8852C163.56 21.1855 163.722 21.5452 163.722 21.9646C163.722 22.3887 163.56 22.7533 163.236 23.0583C162.917 23.3585 162.531 23.5086 162.078 23.5086ZM166.033 35.9034V24.9239H168.985V26.8396H169.099C169.299 26.1581 169.635 25.6435 170.107 25.2956C170.579 24.943 171.122 24.7667 171.737 24.7667C171.889 24.7667 172.054 24.7762 172.23 24.7952C172.406 24.8143 172.561 24.8405 172.695 24.8739V27.5759C172.552 27.533 172.354 27.4948 172.101 27.4615C171.849 27.4281 171.618 27.4114 171.408 27.4114C170.96 27.4114 170.56 27.5091 170.207 27.7045C169.859 27.8951 169.583 28.162 169.378 28.5051C169.178 28.8482 169.078 29.2437 169.078 29.6917V35.9034H166.033ZM178.762 36.1178C177.632 36.1178 176.66 35.8891 175.845 35.4316C175.035 34.9694 174.411 34.3165 173.972 33.473C173.534 32.6248 173.315 31.6217 173.315 30.4637C173.315 29.3343 173.534 28.3431 173.972 27.4901C174.411 26.6371 175.028 25.9723 175.824 25.4958C176.624 25.0192 177.563 24.7809 178.64 24.7809C179.365 24.7809 180.039 24.8977 180.663 25.1312C181.292 25.3599 181.84 25.7054 182.307 26.1677C182.779 26.6299 183.146 27.2113 183.408 27.9118C183.67 28.6076 183.801 29.4224 183.801 30.3565V31.1928H174.53V29.3057H180.935C180.935 28.8673 180.839 28.4789 180.649 28.1406C180.458 27.8022 180.194 27.5377 179.855 27.3471C179.522 27.1517 179.133 27.054 178.69 27.054C178.228 27.054 177.818 27.1613 177.461 27.3757C177.108 27.5854 176.832 27.8689 176.632 28.2263C176.431 28.579 176.329 28.9721 176.324 29.4058V31.1999C176.324 31.7432 176.424 32.2126 176.624 32.6081C176.829 33.0036 177.118 33.3086 177.489 33.5231C177.861 33.7375 178.302 33.8447 178.812 33.8447C179.15 33.8447 179.46 33.7971 179.741 33.7018C180.022 33.6065 180.263 33.4635 180.463 33.2729C180.663 33.0823 180.816 32.8488 180.92 32.5724L183.737 32.7582C183.594 33.4349 183.301 34.0258 182.858 34.5309C182.419 35.0313 181.852 35.4221 181.156 35.7032C180.465 35.9796 179.667 36.1178 178.762 36.1178ZM202.749 21.2641V35.9034H200.076L193.707 26.6895H193.599V35.9034H190.504V21.2641H193.221L199.539 30.4708H199.668V21.2641H202.749ZM210.21 36.1178C209.099 36.1178 208.139 35.8819 207.329 35.4102C206.524 34.9336 205.902 34.2712 205.463 33.423C205.025 32.57 204.806 31.5812 204.806 30.4565C204.806 29.3224 205.025 28.3312 205.463 27.4829C205.902 26.6299 206.524 25.9675 207.329 25.4958C208.139 25.0192 209.099 24.7809 210.21 24.7809C211.32 24.7809 212.278 25.0192 213.083 25.4958C213.893 25.9675 214.518 26.6299 214.956 27.4829C215.395 28.3312 215.614 29.3224 215.614 30.4565C215.614 31.5812 215.395 32.57 214.956 33.423C214.518 34.2712 213.893 34.9336 213.083 35.4102C212.278 35.8819 211.32 36.1178 210.21 36.1178ZM210.224 33.759C210.729 33.759 211.151 33.616 211.489 33.3301C211.828 33.0394 212.083 32.6439 212.254 32.1435C212.43 31.6431 212.519 31.0737 212.519 30.4351C212.519 29.7965 212.43 29.2271 212.254 28.7267C212.083 28.2263 211.828 27.8308 211.489 27.5401C211.151 27.2494 210.729 27.1041 210.224 27.1041C209.714 27.1041 209.285 27.2494 208.937 27.5401C208.594 27.8308 208.335 28.2263 208.158 28.7267C207.987 29.2271 207.901 29.7965 207.901 30.4351C207.901 31.0737 207.987 31.6431 208.158 32.1435C208.335 32.6439 208.594 33.0394 208.937 33.3301C209.285 33.616 209.714 33.759 210.224 33.759ZM219.484 35.9034L216.497 24.9239H219.577L221.279 32.3007H221.379L223.151 24.9239H226.175L227.976 32.2579H228.069L229.742 24.9239H232.816L229.835 35.9034H226.611L224.724 28.9983H224.588L222.701 35.9034H219.484Z" fill="url(#paint1_linear_1_672)"/>
<defs>
<linearGradient id="paint0_linear_1_672" x1="14.2124" y1="0.682487" x2="163.79" y2="197.65" gradientUnits="userSpaceOnUse">
<stop stop-color="#FF6F91"/>
<stop offset="1" stop-color="#8B4CFC"/>
</linearGradient>
<linearGradient id="paint1_linear_1_672" x1="120.279" y1="16.9034" x2="186.232" y2="86.0519" gradientUnits="userSpaceOnUse">
<stop stop-color="#FF6F91"/>
<stop offset="1" stop-color="#8B4CFC"/>
</linearGradient>
</defs>
</svg>
