<svg width="350" height="58" viewBox="0 0 350 58" fill="none" xmlns="http://www.w3.org/2000/svg">
<rect x="0.729733" y="0.682556" width="348.541" height="56.4418" rx="28.2209" fill="white"/>
<path d="M120.71 21.2641V35.9034H117.615V21.2641H120.71ZM126.245 29.5559V35.9034H123.2V24.924H126.102V26.8611H126.23C126.473 26.2225 126.881 25.7174 127.453 25.3457C128.025 24.9692 128.718 24.781 129.533 24.781C130.295 24.781 130.96 24.9478 131.527 25.2814C132.094 25.615 132.535 26.0915 132.849 26.711C133.164 27.3257 133.321 28.0596 133.321 28.9126V35.9034H130.276V29.4559C130.281 28.7839 130.109 28.2597 129.762 27.8833C129.414 27.502 128.935 27.3114 128.325 27.3114C127.915 27.3114 127.553 27.3996 127.238 27.5759C126.928 27.7522 126.685 28.0096 126.509 28.3479C126.338 28.6815 126.249 29.0842 126.245 29.5559ZM142.977 40.0207V34.145H142.884C142.741 34.45 142.538 34.7526 142.276 35.0528C142.019 35.3483 141.683 35.5937 141.268 35.7891C140.858 35.9845 140.358 36.0821 139.767 36.0821C138.933 36.0821 138.178 35.8677 137.501 35.4388C136.829 35.0052 136.295 34.369 135.9 33.5303C135.509 32.6868 135.314 31.6527 135.314 30.428C135.314 29.1699 135.516 28.1239 135.921 27.29C136.326 26.4513 136.865 25.8246 137.537 25.41C138.214 24.9907 138.955 24.781 139.76 24.781C140.375 24.781 140.887 24.8858 141.297 25.0955C141.711 25.3004 142.045 25.5578 142.297 25.8675C142.555 26.1725 142.75 26.4727 142.884 26.7682H143.012V24.924H146.014V40.0207H142.977ZM140.732 33.6589C141.223 33.6589 141.637 33.5255 141.976 33.2586C142.319 32.987 142.581 32.6082 142.762 32.1221C142.948 31.636 143.041 31.0666 143.041 30.4137C143.041 29.7608 142.95 29.1938 142.769 28.7125C142.588 28.2312 142.326 27.8595 141.983 27.5974C141.64 27.3353 141.223 27.2042 140.732 27.2042C140.232 27.2042 139.81 27.34 139.467 27.6117C139.124 27.8833 138.864 28.2597 138.688 28.7411C138.511 29.2224 138.423 29.7799 138.423 30.4137C138.423 31.0523 138.511 31.617 138.688 32.1078C138.869 32.5939 139.128 32.9751 139.467 33.2515C139.81 33.5231 140.232 33.6589 140.732 33.6589ZM155.5 31.2286V24.924H158.545V35.9034H155.622V33.9091H155.507C155.259 34.5525 154.847 35.0695 154.271 35.4603C153.699 35.851 153.001 36.0464 152.176 36.0464C151.442 36.0464 150.797 35.8796 150.239 35.546C149.681 35.2125 149.245 34.7383 148.931 34.1236C148.621 33.5088 148.464 32.7726 148.459 31.9148V24.924H151.504V31.3716C151.509 32.0196 151.683 32.5319 152.026 32.9084C152.369 33.2849 152.829 33.4731 153.406 33.4731C153.773 33.4731 154.116 33.3897 154.435 33.2229C154.754 33.0514 155.012 32.7988 155.207 32.4652C155.407 32.1316 155.505 31.7194 155.5 31.2286ZM160.981 35.9034V24.924H164.026V35.9034H160.981ZM162.51 23.5086C162.058 23.5086 161.669 23.3585 161.345 23.0583C161.026 22.7533 160.866 22.3888 160.866 21.9647C160.866 21.5453 161.026 21.1855 161.345 20.8853C161.669 20.5803 162.058 20.4278 162.51 20.4278C162.963 20.4278 163.349 20.5803 163.668 20.8853C163.993 21.1855 164.155 21.5453 164.155 21.9647C164.155 22.3888 163.993 22.7533 163.668 23.0583C163.349 23.3585 162.963 23.5086 162.51 23.5086ZM166.465 35.9034V24.924H169.417V26.8397H169.532C169.732 26.1582 170.068 25.6435 170.54 25.2957C171.011 24.943 171.555 24.7667 172.169 24.7667C172.322 24.7667 172.486 24.7762 172.663 24.7953C172.839 24.8144 172.994 24.8406 173.127 24.8739V27.5759C172.984 27.533 172.786 27.4949 172.534 27.4615C172.281 27.4282 172.05 27.4115 171.841 27.4115C171.393 27.4115 170.992 27.5092 170.64 27.7046C170.292 27.8952 170.015 28.1621 169.81 28.5052C169.61 28.8483 169.51 29.2438 169.51 29.6917V35.9034H166.465ZM179.194 36.1179C178.065 36.1179 177.093 35.8891 176.278 35.4317C175.468 34.9694 174.843 34.3166 174.405 33.4731C173.967 32.6248 173.747 31.6217 173.747 30.4637C173.747 29.3343 173.967 28.3431 174.405 27.4901C174.843 26.6371 175.46 25.9724 176.256 25.4958C177.057 25.0193 177.996 24.781 179.073 24.781C179.797 24.781 180.471 24.8978 181.096 25.1313C181.725 25.36 182.273 25.7055 182.74 26.1677C183.211 26.63 183.578 27.2114 183.84 27.9119C184.103 28.6076 184.234 29.4225 184.234 30.3565V31.1928H174.962V29.3058H181.367C181.367 28.8673 181.272 28.479 181.081 28.1406C180.891 27.8023 180.626 27.5378 180.288 27.3472C179.954 27.1518 179.566 27.0541 179.123 27.0541C178.66 27.0541 178.251 27.1613 177.893 27.3758C177.541 27.5854 177.264 27.869 177.064 28.2264C176.864 28.579 176.761 28.9722 176.757 29.4058V31.2C176.757 31.7433 176.857 32.2126 177.057 32.6082C177.262 33.0037 177.55 33.3087 177.922 33.5231C178.293 33.7376 178.734 33.8448 179.244 33.8448C179.583 33.8448 179.892 33.7971 180.173 33.7018C180.455 33.6065 180.695 33.4636 180.895 33.2729C181.096 33.0823 181.248 32.8488 181.353 32.5724L184.169 32.7583C184.026 33.435 183.733 34.0259 183.29 34.531C182.852 35.0314 182.285 35.4221 181.589 35.7033C180.898 35.9797 180.1 36.1179 179.194 36.1179ZM203.181 21.2641V35.9034H200.508L194.139 26.6895H194.032V35.9034H190.937V21.2641H193.653L199.972 30.4709H200.101V21.2641H203.181ZM210.642 36.1179C209.532 36.1179 208.572 35.882 207.762 35.4102C206.956 34.9337 206.334 34.2713 205.896 33.4231C205.457 32.57 205.238 31.5812 205.238 30.4566C205.238 29.3224 205.457 28.3312 205.896 27.483C206.334 26.63 206.956 25.9676 207.762 25.4958C208.572 25.0193 209.532 24.781 210.642 24.781C211.753 24.781 212.71 25.0193 213.516 25.4958C214.326 25.9676 214.95 26.63 215.389 27.483C215.827 28.3312 216.046 29.3224 216.046 30.4566C216.046 31.5812 215.827 32.57 215.389 33.4231C214.95 34.2713 214.326 34.9337 213.516 35.4102C212.71 35.882 211.753 36.1179 210.642 36.1179ZM210.656 33.759C211.162 33.759 211.583 33.6161 211.922 33.3301C212.26 33.0394 212.515 32.6439 212.687 32.1435C212.863 31.6432 212.951 31.0737 212.951 30.4352C212.951 29.7966 212.863 29.2271 212.687 28.7268C212.515 28.2264 212.26 27.8309 211.922 27.5402C211.583 27.2495 211.162 27.1041 210.656 27.1041C210.147 27.1041 209.718 27.2495 209.37 27.5402C209.027 27.8309 208.767 28.2264 208.591 28.7268C208.419 29.2271 208.333 29.7966 208.333 30.4352C208.333 31.0737 208.419 31.6432 208.591 32.1435C208.767 32.6439 209.027 33.0394 209.37 33.3301C209.718 33.6161 210.147 33.759 210.656 33.759ZM219.917 35.9034L216.929 24.924H220.01L221.711 32.3008H221.811L223.584 24.924H226.607L228.409 32.2579H228.502L230.174 24.924H233.248L230.267 35.9034H227.043L225.156 28.9984H225.021L223.133 35.9034H219.917Z" fill="url(#paint0_linear_1_704)"/>
<defs>
<linearGradient id="paint0_linear_1_704" x1="120.711" y1="16.9034" x2="186.664" y2="86.0519" gradientUnits="userSpaceOnUse">
<stop stop-color="#FF6F91"/>
<stop offset="1" stop-color="#8B4CFC"/>
</linearGradient>
</defs>
</svg>
