<svg width="33" height="34" viewBox="0 0 33 34" fill="none" xmlns="http://www.w3.org/2000/svg">
<g clip-path="url(#clip0_1_962)">
<path fill-rule="evenodd" clip-rule="evenodd" d="M16.3636 3.8068C20.6629 3.8068 21.1721 3.82566 22.8629 3.90108C24.4342 3.97022 25.2828 4.23422 25.8485 4.45421C26.5965 4.74334 27.137 5.09533 27.6964 5.65474C28.2621 6.22044 28.6078 6.75471 28.897 7.50268C29.1169 8.06838 29.3809 8.92321 29.4501 10.4883C29.5255 12.1854 29.5444 12.6945 29.5444 16.9875C29.5444 21.2868 29.5255 21.7959 29.4501 23.4867C29.3809 25.0581 29.1169 25.9067 28.897 26.4724C28.6078 27.2203 28.2558 27.7609 27.6964 28.3203C27.1307 28.886 26.5965 29.2317 25.8485 29.5208C25.2828 29.7408 24.428 30.0048 22.8629 30.074C21.1658 30.1494 20.6567 30.1682 16.3636 30.1682C12.0644 30.1682 11.5552 30.1494 9.86443 30.074C8.29305 30.0048 7.4445 29.7408 6.87881 29.5208C6.13083 29.2317 5.59028 28.8797 5.03087 28.3203C4.46517 27.7546 4.11947 27.2203 3.83034 26.4724C3.61034 25.9067 3.34635 25.0518 3.27721 23.4867C3.20178 21.7897 3.18293 21.2805 3.18293 16.9875C3.18293 12.6882 3.20178 12.1791 3.27721 10.4883C3.34635 8.91692 3.61034 8.06838 3.83034 7.50268C4.11947 6.75471 4.47146 6.21415 5.03087 5.65474C5.59656 5.08905 6.13083 4.74334 6.87881 4.45421C7.4445 4.23422 8.29933 3.97022 9.86443 3.90108C11.5552 3.82566 12.0644 3.8068 16.3636 3.8068ZM16.3636 0.90918C11.9952 0.90918 11.4484 0.928036 9.73243 1.00346C8.02277 1.07889 6.84738 1.35545 5.82913 1.75144C4.76688 2.16628 3.86805 2.71312 2.97551 3.61195C2.07668 4.50449 1.52984 5.40332 1.11499 6.45929C0.719007 7.48383 0.442444 8.65293 0.367018 10.3626C0.291592 12.0848 0.272736 12.6317 0.272736 17.0001C0.272736 21.3685 0.291592 21.9154 0.367018 23.6313C0.442444 25.341 0.719007 26.5164 1.11499 27.5346C1.52984 28.5969 2.07668 29.4957 2.97551 30.3882C3.86805 31.2808 4.76688 31.8339 5.82284 32.2425C6.84738 32.6384 8.01649 32.915 9.72614 32.9904C11.4421 33.0659 11.9889 33.0847 16.3574 33.0847C20.7258 33.0847 21.2726 33.0659 22.9886 32.9904C24.6982 32.915 25.8736 32.6384 26.8919 32.2425C27.9478 31.8339 28.8467 31.2808 29.7392 30.3882C30.6318 29.4957 31.1849 28.5969 31.5934 27.5409C31.9894 26.5164 32.266 25.3472 32.3414 23.6376C32.4168 21.9216 32.4357 21.3748 32.4357 17.0064C32.4357 12.6379 32.4168 12.0911 32.3414 10.3752C32.266 8.6655 31.9894 7.49011 31.5934 6.47186C31.1975 5.40332 30.6506 4.50449 29.7518 3.61195C28.8592 2.71941 27.9604 2.16628 26.9044 1.75772C25.8799 1.36174 24.7108 1.08517 23.0011 1.00975C21.2789 0.928036 20.7321 0.90918 16.3636 0.90918ZM16.3644 8.73438C11.8011 8.73438 8.09891 12.4365 8.09891 16.9998C8.09891 21.5631 11.8011 25.2653 16.3644 25.2653C20.9276 25.2653 24.6298 21.5631 24.6298 16.9998C24.6298 12.4365 20.9276 8.73438 16.3644 8.73438ZM16.3644 22.3614C13.4039 22.3614 11.0028 19.9603 11.0028 16.9998C11.0028 14.0393 13.4039 11.6383 16.3644 11.6383C19.3248 11.6383 21.7259 14.0393 21.7259 16.9998C21.7259 19.9603 19.3248 22.3614 16.3644 22.3614ZM24.9563 10.3373C26.0185 10.3373 26.8859 9.47622 26.8859 8.40768C26.8859 7.34543 26.0185 6.47803 24.9563 6.47803C23.894 6.47803 23.0266 7.33914 23.0266 8.40768C23.0266 9.46994 23.8878 10.3373 24.9563 10.3373Z" fill="url(#paint0_linear_1_962)"/>
</g>
<defs>
<linearGradient id="paint0_linear_1_962" x1="1.55681" y1="0.909175" x2="37.6541" y2="8.60369" gradientUnits="userSpaceOnUse">
<stop stop-color="#FF6F91"/>
<stop offset="1" stop-color="#8B4CFC"/>
</linearGradient>
<clipPath id="clip0_1_962">
<rect width="32.1818" height="32.1818" fill="white" transform="translate(0.272736 0.90918)"/>
</clipPath>
</defs>
</svg>
