<svg width="220" height="48" viewBox="0 0 220 48" fill="none" xmlns="http://www.w3.org/2000/svg">
<path d="M63.325 35L55.5247 15.4294H60.0539L64.5272 27.8707C64.8068 28.6815 65.0584 29.5202 65.2261 30.331C65.3939 29.4923 65.6455 28.6535 65.9251 27.8707L70.3984 15.4294H74.8437L67.0993 35H63.325ZM76.3318 35V15.4294H80.2459V35H76.3318ZM83.6074 35V15.4294L89.9259 15.4014C94.3153 15.3735 96.9993 17.5263 96.9993 21.3565C96.9993 24.4598 95.2659 26.361 92.3024 27.004L97.7821 35H93.1691L89.0033 28.7933C88.7237 28.374 88.5001 27.9546 88.2485 27.3675H87.5215V35H83.6074ZM87.5215 23.8448H89.7023C91.8271 23.8448 93.0293 22.9781 93.0293 21.3845C93.0293 19.8188 91.8271 18.9521 89.7023 18.9521H87.5215V23.8448ZM98.5372 35L106.533 15.4294H109.916L117.884 35H113.635L112.293 31.2816H104.129L102.787 35H98.5372ZM105.415 27.8987H111.006L108.91 22.5587C108.63 21.8318 108.378 21.0769 108.211 20.322C108.015 21.0769 107.791 21.8597 107.512 22.5587L105.415 27.8987ZM119.318 35V15.4294H123.232V31.4773H130.529V35H119.318Z" fill="url(#paint0_linear_1_812)"/>
<path d="M135.224 35L127.424 15.4294H131.953L136.426 27.8707C136.706 28.6815 136.957 29.5202 137.125 30.331C137.293 29.4923 137.545 28.6535 137.824 27.8707L142.297 15.4294H146.743L138.998 35H135.224ZM148.231 35V15.4294H152.145V35H148.231ZM161.881 35.3635C158.778 35.3635 156.094 34.1333 154.388 31.1418L157.771 28.989C158.778 31.002 160.399 31.8687 162.105 31.8687C163.922 31.8687 165.04 30.974 165.04 29.6321C165.04 27.675 162.971 27.0599 160.567 26.4449C157.547 25.662 155.618 23.9007 155.618 20.9371C155.618 17.4144 158.386 15.0939 162.524 15.0939C165.571 15.0939 167.528 16.4359 168.982 18.7284L165.627 20.7973C164.677 19.2876 163.782 18.5887 162.328 18.5887C160.763 18.5887 159.616 19.4274 159.616 20.7414C159.616 22.1952 161.014 22.6705 162.72 23.2017C165.012 23.9286 169.038 24.9351 169.038 29.4084C169.038 32.9591 166.326 35.3635 161.881 35.3635ZM171.601 35V15.4294H175.515V35H171.601ZM188.382 35.3635C182.567 35.3635 178.178 30.8343 178.178 25.2427C178.178 19.6231 182.567 15.0659 188.382 15.0659C194.17 15.0659 198.531 19.6231 198.531 25.2427C198.531 30.8343 194.17 35.3635 188.382 35.3635ZM182.231 25.2427C182.231 28.7933 184.58 31.7289 188.382 31.7289C192.157 31.7289 194.477 28.7933 194.477 25.2427C194.477 21.692 192.157 18.7005 188.382 18.7005C184.58 18.7005 182.231 21.692 182.231 25.2427ZM201.196 35V15.4294H204.159L213.693 26.7524C214.14 27.2556 214.588 27.7868 214.979 28.374C214.867 27.5352 214.839 26.333 214.839 25.1867V15.4294H218.418V35H215.874L205.977 23.2297C205.529 22.7264 205.082 22.1952 204.691 21.6081C204.803 22.4469 204.83 23.6491 204.83 24.7953V35H201.196Z" fill="#111111"/>
<rect opacity="0.1" width="48" height="48" rx="12" fill="url(#paint1_linear_1_812)"/>
<path d="M14.62 13.8067C14.62 13.2329 14.78 12.9181 15.24 12.4924C15.76 11.9925 15.94 11.937 16.56 12.0481C16.98 12.1221 18.86 13.0662 20.9 14.2325C22.88 15.3618 25.58 16.9168 26.9 17.6758C28.22 18.4348 29.48 19.1568 29.7 19.2679C29.92 19.3789 31.28 20.1565 32.7 20.971C34.14 21.8041 35.46 22.6927 35.66 22.9703C35.84 23.2295 36 23.6923 36 24.007C36 24.3032 35.84 24.7845 35.66 25.0437C35.46 25.3214 34.4 26.0434 33.3 26.6913C32.2 27.3207 29.06 29.1349 26.3 30.7085C23.56 32.282 20.36 34.0962 19.2 34.7442C18.04 35.3921 16.84 35.9475 16.5 35.9845C16.1 36.04 15.72 35.9475 15.36 35.6883C15.04 35.4662 14.7 34.9848 14.58 34.5961C14.48 34.2258 14.4 32.7634 14.5 28.7277L15 28.7462C15.28 28.7647 16.26 28.9313 17.2 29.0979C18.64 29.3756 19.16 29.3941 20.7 29.2275C21.82 29.0979 23.06 28.8017 24 28.45C24.82 28.1353 25.6 27.8021 25.7 27.7095C25.82 27.6169 25.86 27.4873 25.8 27.4318C25.74 27.3763 25.02 27.5059 24.2 27.728C23 28.0612 22.18 28.1538 20.1 28.1538C18.04 28.1538 17.12 28.0612 15.7 27.728C14.72 27.5059 13.74 27.1726 13.54 27.006C13.28 26.7654 13.18 26.4136 13.2 25.525C13.2 24.729 13.28 24.3773 13.46 24.3773C13.58 24.3773 14.06 24.5254 14.5 24.729C14.94 24.9326 15.7 25.2103 16.2 25.3584C16.7 25.5065 17.58 25.7287 18.16 25.8397C18.72 25.9508 20.2 26.0434 21.4 26.0434C22.66 26.0434 23.84 25.9508 24.16 25.8212C24.64 25.6361 24.44 25.5806 22.5 25.4695C21.3 25.3955 19.68 25.1918 18.9 25.0252C18.14 24.8401 17.1 24.5254 16.6 24.3403C16.1 24.1366 15.38 23.8404 15 23.6738C14.62 23.5257 13.92 23.1555 13.46 22.8593C12.6 22.3409 12.6 22.3409 12.6 21.2302C12.6 20.6193 12.64 20.1194 12.7 20.1194C12.76 20.1194 13.32 20.5267 13.96 21.008C14.58 21.4894 15.68 22.1558 16.4 22.489C17.12 22.8037 18.42 23.2295 19.3 23.4517C20.18 23.6553 21.32 23.896 21.86 23.97C22.56 24.0626 22.8 24.0441 22.8 23.8589C22.8 23.7479 22.68 23.5998 22.56 23.5627C22.42 23.5257 21.68 23.3221 20.9 23.0814C20.14 22.8593 18.82 22.3779 18 22.0262C17.18 21.656 15.9 20.971 15.18 20.5082C14.46 20.0454 13.46 19.3234 12.02 18.1756L12 16.7317C12 15.8986 12.08 15.3062 12.2 15.3062C12.32 15.3062 12.4 15.3618 12.4 15.4358C12.38 15.5284 13 16.1763 13.74 16.8798C14.48 17.6018 15.82 18.6385 16.7 19.1938C17.58 19.7307 18.86 20.4712 19.56 20.8044C20.24 21.1376 20.9 21.4153 21 21.4153C21.12 21.4153 21.2 21.3598 21.2 21.2672C21.2 21.1932 20.78 20.897 20.26 20.5822C19.74 20.2675 18.78 19.5641 18.12 19.0087C17.48 18.4533 16.56 17.5277 16.1 16.9723C15.66 16.417 15.12 15.6395 14.94 15.2507C14.76 14.8805 14.6 14.2325 14.62 13.8067Z" fill="url(#paint2_linear_1_812)"/>
<defs>
<linearGradient id="paint0_linear_1_812" x1="62.5475" y1="7" x2="156.049" y2="103.174" gradientUnits="userSpaceOnUse">
<stop stop-color="#FF6F91"/>
<stop offset="1" stop-color="#8B4CFC"/>
</linearGradient>
<linearGradient id="paint1_linear_1_812" x1="1.91635" y1="-6.59221e-06" x2="55.7861" y2="11.4874" gradientUnits="userSpaceOnUse">
<stop stop-color="#FF6F91"/>
<stop offset="1" stop-color="#8B4CFC"/>
</linearGradient>
<linearGradient id="paint2_linear_1_812" x1="12.9582" y1="12" x2="39.893" y2="17.7437" gradientUnits="userSpaceOnUse">
<stop stop-color="#FF6F91"/>
<stop offset="1" stop-color="#8B4CFC"/>
</linearGradient>
</defs>
</svg>
