<svg width="60" height="60" viewBox="0 0 60 60" fill="none" xmlns="http://www.w3.org/2000/svg">
<circle cx="30" cy="30" r="30" fill="url(#paint0_linear_42_255)"/>
<path d="M19.4526 24.2047C22.4295 26.5059 27.653 30.5544 29.1882 31.8167C29.3943 31.9871 29.6154 32.0737 29.8448 32.0737C30.0739 32.0737 30.2945 31.9879 30.5002 31.8183C32.0367 30.5548 37.2602 26.5059 40.2371 24.2047C40.4224 24.0618 40.4507 23.8104 40.3006 23.6356C39.9538 23.2316 39.4366 23 38.8823 23H20.8074C20.2531 23 19.7359 23.2316 19.3891 23.6356C19.239 23.8104 19.2673 24.0618 19.4526 24.2047Z" fill="white"/>
<path d="M40.4279 25.4496C40.2677 25.3815 40.0793 25.4053 39.946 25.5092C36.6447 28.0637 32.4314 31.338 31.1057 32.4284C30.3617 33.0414 29.3291 33.0414 28.5833 32.4276C27.1704 31.2655 22.4389 27.594 19.744 25.5092C19.6098 25.4052 19.421 25.3823 19.2621 25.4495C19.1024 25.5173 19 25.6631 19 25.8238V36.1965C19 37.1064 19.8106 37.8464 20.8075 37.8464H38.8825C39.8794 37.8464 40.69 37.1064 40.69 36.1965V25.8238C40.69 25.6631 40.5876 25.5169 40.4279 25.4496Z" fill="white"/>
<defs>
<linearGradient id="paint0_linear_42_255" x1="30" y1="-2.00151e-06" x2="63.1566" y2="41.9476" gradientUnits="userSpaceOnUse">
<stop stop-color="#FF6F91"/>
<stop offset="1" stop-color="#8B4CFC"/>
</linearGradient>
</defs>
</svg>
