<svg width="79" height="80" viewBox="0 0 79 80" fill="none" xmlns="http://www.w3.org/2000/svg">
<rect opacity="0.1" y="0.547363" width="78.6866" height="78.6866" rx="15.3535" fill="url(#paint0_linear_0_1)"/>
<path d="M37 23.5474C34.8783 23.5474 32.8434 24.3902 31.3431 25.8905C29.8429 27.3908 29 29.4256 29 31.5474C29 33.6691 29.8429 35.7039 31.3431 37.2042C32.8434 38.7045 34.8783 39.5474 37 39.5474C39.1217 39.5474 41.1566 38.7045 42.6569 37.2042C44.1571 35.7039 45 33.6691 45 31.5474C45 29.4256 44.1571 27.3908 42.6569 25.8905C41.1566 24.3902 39.1217 23.5474 37 23.5474ZM27.018 41.5474C26.4912 41.545 25.9691 41.6467 25.4817 41.8467C24.9944 42.0466 24.5513 42.3409 24.1779 42.7126C23.8046 43.0842 23.5083 43.526 23.3062 44.0125C23.1041 44.4989 23 45.0206 23 45.5474C23 48.9294 24.666 51.4794 27.27 53.1414C29.834 54.7754 33.29 55.5474 37 55.5474C37.8227 55.5474 38.6293 55.5094 39.42 55.4334C37.8503 53.4819 36.9962 51.0518 37 48.5474C37 45.8874 37.944 43.4474 39.514 41.5474H27.018ZM40.27 47.3874C40.7865 47.2553 41.2713 47.0213 41.696 46.6991C42.1208 46.3769 42.4768 45.9731 42.7433 45.5114C43.0097 45.0497 43.1812 44.5394 43.2476 44.0104C43.314 43.4815 43.274 42.9446 43.13 42.4314L42.82 41.3174C43.3293 40.9267 43.8767 40.5954 44.462 40.3234L45.138 41.0394C45.5118 41.436 45.9627 41.752 46.463 41.9681C46.9634 42.1842 47.5026 42.2957 48.0476 42.2959C48.5926 42.2961 49.1319 42.1849 49.6323 41.9692C50.1328 41.7535 50.5839 41.4377 50.958 41.0414L51.606 40.3534C52.2033 40.636 52.76 40.9814 53.276 41.3894L53.024 42.2354C52.868 42.7574 52.8203 43.3059 52.8838 43.847C52.9473 44.3882 53.1207 44.9107 53.3934 45.3824C53.6661 45.8542 54.0322 46.2652 54.4695 46.5904C54.9067 46.9156 55.4057 47.148 55.936 47.2734L56.634 47.4374C56.7142 48.1126 56.7209 48.7946 56.654 49.4714L55.734 49.7054C55.2171 49.8372 54.7319 50.0711 54.3068 50.3933C53.8816 50.7155 53.5253 51.1195 53.2586 51.5815C52.9919 52.0434 52.8203 52.5541 52.7539 53.0834C52.6875 53.6126 52.7277 54.1498 52.872 54.6634L53.184 55.7754C52.6733 56.1674 52.1253 56.4994 51.54 56.7714L50.864 56.0554C50.4904 55.6589 50.0397 55.343 49.5396 55.1269C49.0396 54.9109 48.5006 54.7992 47.9559 54.7989C47.4111 54.7985 46.872 54.9094 46.3716 55.1248C45.8713 55.3401 45.4202 55.6554 45.046 56.0514L44.396 56.7394C43.8016 56.459 43.2413 56.1114 42.726 55.7034L42.98 54.8594C43.1363 54.3372 43.1843 53.7885 43.1209 53.2471C43.0576 52.7057 42.8842 52.183 42.6115 51.711C42.3388 51.239 41.9725 50.8278 41.5351 50.5025C41.0977 50.1772 40.5985 49.9447 40.068 49.8194L39.368 49.6554C39.2879 48.9807 39.2812 48.2994 39.348 47.6234L40.27 47.3874ZM50 48.5474C50 48.0169 49.7893 47.5082 49.4142 47.1332C49.0391 46.7581 48.5304 46.5474 48 46.5474C47.4696 46.5474 46.9609 46.7581 46.5858 47.1332C46.2107 47.5082 46 48.0169 46 48.5474C46 49.0778 46.2107 49.5865 46.5858 49.9616C46.9609 50.3366 47.4696 50.5474 48 50.5474C48.5304 50.5474 49.0391 50.3366 49.4142 49.9616C49.7893 49.5865 50 49.0778 50 48.5474Z" fill="url(#paint1_linear_0_1)"/>
<defs>
<linearGradient id="paint0_linear_0_1" x1="39.3433" y1="0.547363" x2="39.3433" y2="79.2339" gradientUnits="userSpaceOnUse">
<stop stop-color="#FF6F91"/>
<stop offset="1" stop-color="#8B4CFC"/>
</linearGradient>
<linearGradient id="paint1_linear_0_1" x1="23" y1="40.1594" x2="56.6996" y2="40.1594" gradientUnits="userSpaceOnUse">
<stop stop-color="#8A00FF"/>
<stop offset="1" stop-color="#FF007A"/>
</linearGradient>
</defs>
</svg>
