<svg width="60" height="60" viewBox="0 0 60 60" fill="none" xmlns="http://www.w3.org/2000/svg">
<circle cx="30" cy="30" r="30" fill="url(#paint0_linear_42_242)"/>
<path d="M38.3952 33.1317C37.1707 33.1317 35.9684 32.9401 34.8291 32.5635C34.2708 32.373 33.5845 32.5478 33.2438 32.8978L30.995 34.596C28.387 33.2034 26.7806 31.597 25.4074 29.0078L27.0551 26.8169C27.4832 26.3893 27.6367 25.7646 27.4527 25.1785C27.0746 24.0328 26.8825 22.8308 26.8825 21.6054C26.8826 20.7202 26.1626 20 25.2777 20H21.6048C20.7199 20 20 20.7202 20 21.6053C20 31.7517 28.252 40.0061 38.3952 40.0061C39.2801 40.0061 40 39.2859 40 38.4008V34.737C39.9999 33.8519 39.28 33.1317 38.3952 33.1317Z" fill="white"/>
<defs>
<linearGradient id="paint0_linear_42_242" x1="30" y1="-2.00151e-06" x2="63.1566" y2="41.9476" gradientUnits="userSpaceOnUse">
<stop stop-color="#FF6F91"/>
<stop offset="1" stop-color="#8B4CFC"/>
</linearGradient>
</defs>
</svg>
