<svg width="79" height="80" viewBox="0 0 79 80" fill="none" xmlns="http://www.w3.org/2000/svg">
<rect opacity="0.1" y="0.547363" width="78.6866" height="78.6866" rx="15.3535" fill="url(#paint0_linear_0_1)"/>
<path d="M30.375 42.4224C28.9534 42.4224 27.5638 42.8439 26.3818 43.6337C25.1999 44.4234 24.2786 45.546 23.7346 46.8593C23.1906 48.1727 23.0483 49.6178 23.3256 51.0121C23.6029 52.4063 24.2875 53.687 25.2927 54.6922C26.2979 55.6974 27.5785 56.3819 28.9728 56.6593C30.367 56.9366 31.8122 56.7943 33.1255 56.2502C34.4389 55.7062 35.5614 54.785 36.3512 53.603C37.141 52.421 37.5625 51.0314 37.5625 49.6099C37.5625 47.7036 36.8052 45.8754 35.4573 44.5275C34.1094 43.1796 32.2812 42.4224 30.375 42.4224ZM30.375 52.4849C29.8064 52.4849 29.2505 52.3162 28.7777 52.0003C28.3049 51.6844 27.9364 51.2354 27.7188 50.7101C27.5012 50.1847 27.4443 49.6067 27.5552 49.049C27.6662 48.4913 27.94 47.979 28.3421 47.5769C28.7441 47.1749 29.2564 46.901 29.8141 46.7901C30.3718 46.6792 30.9499 46.7361 31.4752 46.9537C32.0005 47.1713 32.4496 47.5398 32.7655 48.0126C33.0814 48.4854 33.25 49.0412 33.25 49.6099C33.25 50.3724 32.9471 51.1036 32.4079 51.6428C31.8688 52.182 31.1375 52.4849 30.375 52.4849ZM24.625 39.5474C24.1983 39.5477 23.7811 39.4214 23.4262 39.1845C23.0712 38.9476 22.7946 38.6107 22.6313 38.2165C22.4679 37.8223 22.4252 37.3885 22.5086 36.97C22.5919 36.5515 22.7975 36.1671 23.0994 35.8656L25.1641 33.7974L23.0994 31.7292C22.6944 31.3241 22.4668 30.7747 22.4668 30.2018C22.4668 29.629 22.6944 29.0795 23.0994 28.6745C23.5045 28.2694 24.0539 28.0418 24.6268 28.0418C25.1997 28.0418 25.7491 28.2694 26.1541 28.6745L28.2187 30.7427L30.2869 28.6781C30.692 28.273 31.2414 28.0454 31.8143 28.0454C32.3872 28.0454 32.9366 28.273 33.3416 28.6781C33.7467 29.0831 33.9743 29.6325 33.9743 30.2054C33.9743 30.7783 33.7467 31.3277 33.3416 31.7328L31.2734 33.7974L33.3434 35.8656C33.7485 36.2706 33.9761 36.82 33.9761 37.3929C33.9761 37.9658 33.7485 38.5152 33.3434 38.9203C32.9384 39.3253 32.389 39.5529 31.8161 39.5529C31.2432 39.5529 30.6938 39.3253 30.2887 38.9203L28.2187 36.852L26.1505 38.9167C25.9501 39.1168 25.7123 39.2756 25.4505 39.3838C25.1888 39.492 24.9082 39.5476 24.625 39.5474ZM57.7755 53.1156C58.1806 53.5206 58.4082 54.07 58.4082 54.6429C58.4082 55.2158 58.1806 55.7652 57.7755 56.1702C57.3705 56.5753 56.8211 56.8029 56.2482 56.8029C55.6753 56.8029 55.1259 56.5753 54.7209 56.1702L52.6562 54.102L50.588 56.1721C50.183 56.5771 49.6336 56.8047 49.0607 56.8047C48.4878 56.8047 47.9384 56.5771 47.5334 56.1721C47.1283 55.767 46.9007 55.2176 46.9007 54.6447C46.9007 54.0718 47.1283 53.5224 47.5334 53.1174L49.6016 51.0474L47.5316 48.9792C47.1265 48.5741 46.8989 48.0247 46.8989 47.4518C46.8989 46.879 47.1265 46.3295 47.5316 45.9245C47.9366 45.5194 48.486 45.2918 49.0589 45.2918C49.6318 45.2918 50.1812 45.5194 50.5862 45.9245L52.6562 47.9927L54.7244 45.9227C55.1295 45.5176 55.6789 45.29 56.2518 45.29C56.8247 45.29 57.3741 45.5176 57.7791 45.9227C58.1842 46.3277 58.4118 46.8772 58.4118 47.45C58.4118 48.0229 58.1842 48.5723 57.7791 48.9774L55.7109 51.0474L57.7755 53.1156ZM49.9771 36.4729C49.0409 40.6057 45.785 44.2947 41.875 45.6765C41.608 45.7709 41.325 45.8118 41.0422 45.7968C40.7594 45.7818 40.4824 45.7113 40.2268 45.5892C39.7107 45.3427 39.3137 44.9013 39.1231 44.3621C38.9325 43.8229 38.9638 43.23 39.2103 42.7139C39.4568 42.1978 39.8983 41.8008 40.4375 41.6102C42.9657 40.7117 45.1579 38.2123 45.7688 35.5188C46.1947 33.6392 45.8407 31.7741 44.7482 30.0311V31.6483C44.7482 32.2202 44.521 32.7686 44.1166 33.173C43.7123 33.5774 43.1638 33.8046 42.5919 33.8046C42.0201 33.8046 41.4716 33.5774 41.0672 33.173C40.6629 32.7686 40.4357 32.2202 40.4357 31.6483V24.4536C40.4357 23.8817 40.6629 23.3333 41.0672 22.9289C41.4716 22.5245 42.0201 22.2974 42.5919 22.2974H49.7794C50.3513 22.2974 50.8998 22.5245 51.3041 22.9289C51.7085 23.3333 51.9357 23.8817 51.9357 24.4536C51.9357 25.0255 51.7085 25.5739 51.3041 25.9783C50.8998 26.3827 50.3513 26.6099 49.7794 26.6099H47.625C49.9196 29.5945 50.7551 33.0355 49.9771 36.4729Z" fill="url(#paint1_linear_0_1)"/>
<defs>
<linearGradient id="paint0_linear_0_1" x1="39.3433" y1="0.547363" x2="39.3433" y2="79.2339" gradientUnits="userSpaceOnUse">
<stop stop-color="#FF6F91"/>
<stop offset="1" stop-color="#8B4CFC"/>
</linearGradient>
<linearGradient id="paint1_linear_0_1" x1="22.4668" y1="39.551" x2="58.4118" y2="39.551" gradientUnits="userSpaceOnUse">
<stop stop-color="#8A00FF"/>
<stop offset="1" stop-color="#FF007A"/>
</linearGradient>
</defs>
</svg>
