<svg width="33" height="34" viewBox="0 0 33 34" fill="none" xmlns="http://www.w3.org/2000/svg">
<path d="M23.5776 12.526C25.6471 14.0106 28.1823 14.8841 30.9205 14.8841V9.5963C30.4023 9.59641 29.8854 9.54218 29.3785 9.43438V13.5967C26.6405 13.5967 24.1056 12.7231 22.0356 11.2386V22.0296C22.0356 27.4277 17.675 31.8035 12.2964 31.8035C10.2895 31.8035 8.42414 31.1946 6.8746 30.1503C8.64314 31.9651 11.1095 33.0909 13.8381 33.0909C19.2171 33.0909 23.5778 28.7151 23.5778 23.3167V12.526H23.5776ZM25.4799 7.19122C24.4223 6.03164 23.7279 4.53311 23.5776 2.87642V2.19629H22.1163C22.4841 4.30195 23.7388 6.10089 25.4799 7.19122ZM10.2766 26.0079C9.6857 25.2304 9.36638 24.2792 9.36781 23.3012C9.36781 20.8323 11.3623 18.8305 13.8229 18.8305C14.2815 18.8304 14.7373 18.9008 15.1744 19.04V13.634C14.6636 13.5637 14.1482 13.5339 13.633 13.5449V17.7526C13.1956 17.6135 12.7396 17.5428 12.2809 17.5432C9.82023 17.5432 7.82586 19.5448 7.82586 22.0141C7.82586 23.76 8.82277 25.2716 10.2766 26.0079Z" fill="#FF004F"/>
<path d="M22.0355 11.2385C24.1056 12.723 26.6404 13.5965 29.3784 13.5965V9.43427C27.8501 9.10757 26.4971 8.30606 25.4799 7.19122C23.7386 6.10078 22.4841 4.30184 22.1162 2.19629H18.2778V23.3165C18.2691 25.7787 16.278 27.7723 13.8226 27.7723C12.3757 27.7723 11.0903 27.0802 10.2762 26.0079C8.82249 25.2716 7.82558 23.7599 7.82558 22.0142C7.82558 19.5452 9.81995 17.5433 12.2806 17.5433C12.752 17.5433 13.2064 17.617 13.6327 17.7527V13.545C8.34851 13.6545 4.09875 17.9876 4.09875 23.3166C4.09875 25.9768 5.15704 28.3884 6.87465 30.1504C8.42419 31.1946 10.2895 31.8036 12.2964 31.8036C17.6752 31.8036 22.0356 27.4276 22.0356 22.0296V11.2385H22.0355Z" fill="black"/>
<path d="M29.3784 9.43441V8.30897C28.0003 8.31106 26.6492 7.92373 25.4799 7.19125C26.515 8.32851 27.8779 9.11268 29.3784 9.43441ZM22.1163 2.19643C22.0812 1.9952 22.0542 1.79264 22.0355 1.58931V0.90918H16.7356V22.0296C16.7272 24.4914 14.7362 26.4851 12.2806 26.4851C11.5597 26.4851 10.879 26.3134 10.2762 26.0082C11.0903 27.0803 12.3758 27.7724 13.8227 27.7724C16.2778 27.7724 18.2692 25.7789 18.2778 23.3167V2.19643H22.1163ZM13.6329 13.5451V12.347C13.1901 12.2862 12.7436 12.2558 12.2966 12.256C6.91735 12.2559 2.55682 16.6319 2.55682 22.0296C2.55682 25.4137 4.27059 28.396 6.87478 30.1504C5.15717 28.3884 4.09888 25.9767 4.09888 23.3166C4.09888 17.9877 8.34853 13.6547 13.6329 13.5451Z" fill="#00F2EA"/>
</svg>
