<svg width="187" height="49" viewBox="0 0 187 49" fill="none" xmlns="http://www.w3.org/2000/svg">
<rect width="187" height="49" rx="24.5" fill="url(#paint0_linear_1_825)"/>
<path d="M52.206 18.364V20.83H48.858V31H45.78V20.83H42.432V18.364H52.206ZM56.8288 22.63C57.1888 22.078 57.6388 21.646 58.1788 21.334C58.7188 21.01 59.3188 20.848 59.9788 20.848V24.106H59.1328C58.3648 24.106 57.7888 24.274 57.4048 24.61C57.0208 24.934 56.8288 25.51 56.8288 26.338V31H53.7508V20.956H56.8288V22.63ZM71.71 20.956L65.41 35.77H62.098L64.402 30.658L60.316 20.956H63.754L66.076 27.238L68.38 20.956H71.71ZM81.6775 23.512H80.0215V31H76.9435V23.512H75.8275V20.956H76.9435V20.668C76.9435 19.432 77.2975 18.496 78.0055 17.86C78.7135 17.212 79.7515 16.888 81.1195 16.888C81.3475 16.888 81.5155 16.894 81.6235 16.906V19.516C81.0355 19.48 80.6215 19.564 80.3815 19.768C80.1415 19.972 80.0215 20.338 80.0215 20.866V20.956H81.6775V23.512ZM87.6958 31.144C86.7118 31.144 85.8238 30.934 85.0318 30.514C84.2518 30.094 83.6338 29.494 83.1778 28.714C82.7338 27.934 82.5118 27.022 82.5118 25.978C82.5118 24.946 82.7398 24.04 83.1958 23.26C83.6518 22.468 84.2758 21.862 85.0678 21.442C85.8598 21.022 86.7478 20.812 87.7318 20.812C88.7158 20.812 89.6038 21.022 90.3958 21.442C91.1878 21.862 91.8118 22.468 92.2678 23.26C92.7238 24.04 92.9518 24.946 92.9518 25.978C92.9518 27.01 92.7178 27.922 92.2498 28.714C91.7938 29.494 91.1638 30.094 90.3598 30.514C89.5678 30.934 88.6798 31.144 87.6958 31.144ZM87.6958 28.48C88.2838 28.48 88.7818 28.264 89.1898 27.832C89.6098 27.4 89.8198 26.782 89.8198 25.978C89.8198 25.174 89.6158 24.556 89.2078 24.124C88.8118 23.692 88.3198 23.476 87.7318 23.476C87.1318 23.476 86.6338 23.692 86.2378 24.124C85.8418 24.544 85.6438 25.162 85.6438 25.978C85.6438 26.782 85.8358 27.4 86.2198 27.832C86.6158 28.264 87.1078 28.48 87.6958 28.48ZM97.6628 22.63C98.0228 22.078 98.4728 21.646 99.0128 21.334C99.5528 21.01 100.153 20.848 100.813 20.848V24.106H99.9668C99.1988 24.106 98.6228 24.274 98.2388 24.61C97.8548 24.934 97.6628 25.51 97.6628 26.338V31H94.5848V20.956H97.6628V22.63ZM114.324 18.364V20.83H109.176V23.494H113.028V25.888H109.176V31H106.098V18.364H114.324ZM119.02 22.63C119.38 22.078 119.83 21.646 120.37 21.334C120.91 21.01 121.51 20.848 122.17 20.848V24.106H121.324C120.556 24.106 119.98 24.274 119.596 24.61C119.212 24.934 119.02 25.51 119.02 26.338V31H115.942V20.956H119.02V22.63ZM133.109 25.816C133.109 26.104 133.091 26.404 133.055 26.716H126.089C126.137 27.34 126.335 27.82 126.683 28.156C127.043 28.48 127.481 28.642 127.997 28.642C128.765 28.642 129.299 28.318 129.599 27.67H132.875C132.707 28.33 132.401 28.924 131.957 29.452C131.525 29.98 130.979 30.394 130.319 30.694C129.659 30.994 128.921 31.144 128.105 31.144C127.121 31.144 126.245 30.934 125.477 30.514C124.709 30.094 124.109 29.494 123.677 28.714C123.245 27.934 123.029 27.022 123.029 25.978C123.029 24.934 123.239 24.022 123.659 23.242C124.091 22.462 124.691 21.862 125.459 21.442C126.227 21.022 127.109 20.812 128.105 20.812C129.077 20.812 129.941 21.016 130.697 21.424C131.453 21.832 132.041 22.414 132.461 23.17C132.893 23.926 133.109 24.808 133.109 25.816ZM129.959 25.006C129.959 24.478 129.779 24.058 129.419 23.746C129.059 23.434 128.609 23.278 128.069 23.278C127.553 23.278 127.115 23.428 126.755 23.728C126.407 24.028 126.191 24.454 126.107 25.006H129.959ZM144.201 25.816C144.201 26.104 144.183 26.404 144.147 26.716H137.181C137.229 27.34 137.427 27.82 137.775 28.156C138.135 28.48 138.573 28.642 139.089 28.642C139.857 28.642 140.391 28.318 140.691 27.67H143.967C143.799 28.33 143.493 28.924 143.049 29.452C142.617 29.98 142.071 30.394 141.411 30.694C140.751 30.994 140.013 31.144 139.197 31.144C138.213 31.144 137.337 30.934 136.569 30.514C135.801 30.094 135.201 29.494 134.769 28.714C134.337 27.934 134.121 27.022 134.121 25.978C134.121 24.934 134.331 24.022 134.751 23.242C135.183 22.462 135.783 21.862 136.551 21.442C137.319 21.022 138.201 20.812 139.197 20.812C140.169 20.812 141.033 21.016 141.789 21.424C142.545 21.832 143.133 22.414 143.553 23.17C143.985 23.926 144.201 24.808 144.201 25.816ZM141.051 25.006C141.051 24.478 140.871 24.058 140.511 23.746C140.151 23.434 139.701 23.278 139.161 23.278C138.645 23.278 138.207 23.428 137.847 23.728C137.499 24.028 137.283 24.454 137.199 25.006H141.051Z" fill="white"/>
<defs>
<linearGradient id="paint0_linear_1_825" x1="7.46579" y1="-6.72955e-06" x2="139.459" y2="107.417" gradientUnits="userSpaceOnUse">
<stop stop-color="#FF6F91"/>
<stop offset="1" stop-color="#8B4CFC"/>
</linearGradient>
</defs>
</svg>
