<svg width="33" height="34" viewBox="0 0 33 34" fill="none" xmlns="http://www.w3.org/2000/svg">
<g clip-path="url(#clip0_1_969)">
<path d="M32.359 9.20333C32.1771 8.51868 31.8185 7.89383 31.3192 7.3913C30.8199 6.88877 30.1973 6.52621 29.5139 6.33988C26.9978 5.66333 16.941 5.66333 16.941 5.66333C16.941 5.66333 6.88419 5.66333 4.36816 6.33988C3.68469 6.52621 3.06214 6.88877 2.56282 7.3913C2.06351 7.89383 1.70493 8.51868 1.52299 9.20333C0.850098 11.7303 0.850098 17.0001 0.850098 17.0001C0.850098 17.0001 0.850098 22.2699 1.52299 24.7969C1.70493 25.4815 2.06351 26.1064 2.56282 26.6089C3.06214 27.1114 3.68469 27.474 4.36816 27.6603C6.88419 28.3369 16.941 28.3369 16.941 28.3369C16.941 28.3369 26.9978 28.3369 29.5139 27.6603C30.1973 27.474 30.8199 27.1114 31.3192 26.6089C31.8185 26.1064 32.1771 25.4815 32.359 24.7969C33.0319 22.2699 33.0319 17.0001 33.0319 17.0001C33.0319 17.0001 33.0319 11.7303 32.359 9.20333Z" fill="#FF0302"/>
<path d="M13.6497 21.7853V12.2148L22.0609 17.0001L13.6497 21.7853Z" fill="#FEFEFE"/>
</g>
<defs>
<clipPath id="clip0_1_969">
<rect width="32.1818" height="32.1818" fill="white" transform="translate(0.818176 0.90918)"/>
</clipPath>
</defs>
</svg>
